<?xml version="1.0" standalone="no"?>
<!DOCTYPE svg PUBLIC "-//W3C//DTD SVG 20010904//EN"
 "http://www.w3.org/TR/2001/REC-SVG-20010904/DTD/svg10.dtd">
<svg version="1.0" xmlns="http://www.w3.org/2000/svg"
 width="6240.000000pt" height="3120.000000pt" viewBox="0 0 6240.000000 3120.000000"
 preserveAspectRatio="xMidYMid meet">

<g transform="translate(0.000000,3120.000000) scale(0.100000,-0.100000)"
fill="#000000" stroke="none">
<path d="M0 25726 l0 -5474 25 11 c27 13 33 32 12 40 -9 4 -9 8 1 23 46 69 51
79 42 89 -5 6 -5 17 1 25 8 11 12 12 16 3 2 -7 11 -13 19 -13 17 0 19 -26 1
-34 -9 -5 -9 -7 0 -12 14 -6 18 -25 5 -23 -18 3 -32 -2 -32 -11 0 -5 7 -7 15
-4 17 7 21 -21 5 -31 -5 -3 -7 -12 -4 -19 3 -7 -1 -20 -8 -27 -8 -8 -20 -34
-28 -59 -7 -25 -17 -49 -22 -55 -6 -6 -7 -3 -3 8 4 9 3 17 -3 17 -14 0 -23
-28 -12 -35 16 -10 12 -29 -10 -53 -20 -21 -20 -35 -20 -10057 l0 -10035
31200 0 31200 0 0 15600 0 15600 -31200 0 -31200 0 0 -5474z m45202 -3987 c11
-7 9 -139 -8 -684 -6 -158 -9 -192 -23 -202 -22 -17 -182 -17 -203 0 -14 10
-17 49 -23 262 -10 400 -9 593 5 610 6 7 24 16 38 18 42 7 201 4 214 -4z
m-2740 -226 c15 -18 22 -53 113 -633 48 -302 77 -502 101 -695 4 -37 2 -54 -8
-61 -13 -10 -199 -48 -295 -60 -59 -7 -63 -3 -83 86 -6 30 -18 84 -26 120 -16
70 -29 133 -68 330 -13 69 -39 193 -56 275 -36 168 -59 278 -65 315 -9 51 -35
225 -35 237 0 15 69 35 220 63 63 12 129 25 145 30 17 4 33 8 36 9 3 1 13 -7
21 -16z m5404 -18 c133 -23 263 -51 271 -58 4 -4 -17 -108 -60 -302 -20 -88
-58 -266 -86 -395 -28 -129 -56 -251 -61 -270 -5 -19 -28 -116 -50 -215 -23
-99 -45 -184 -50 -189 -10 -10 -294 41 -332 61 -16 8 -28 22 -28 33 0 39 47
355 101 680 29 177 48 296 59 365 37 244 53 315 74 315 7 0 80 -11 162 -25z
m-8199 -767 c13 -18 34 -74 109 -288 36 -102 72 -203 80 -225 30 -81 104 -307
104 -316 0 -10 -51 -37 -138 -72 -62 -26 -63 -26 -81 -6 -19 20 -54 103 -151
349 -11 30 -29 73 -39 95 -10 22 -33 78 -51 125 -17 47 -38 96 -45 110 -22 43
-47 129 -40 139 10 18 195 99 226 100 9 1 21 -5 26 -11z m11017 -35 c108 -41
118 -49 110 -77 -5 -17 -217 -521 -270 -641 -58 -133 -74 -165 -82 -165 -16 0
-150 56 -177 74 -14 9 -25 22 -25 29 0 16 39 143 57 185 8 17 20 51 28 75 56
173 172 483 202 540 17 34 21 33 157 -20z m-50535 -205 c11 -10 13 -10 7 0 -4
6 -2 12 4 12 6 0 10 -12 8 -27 -2 -22 -8 -27 -23 -25 -26 5 -49 27 -41 41 9
15 29 14 45 -1z m37074 -1000 c52 -84 223 -379 262 -453 27 -49 54 -97 61
-105 13 -16 23 -35 99 -175 27 -49 74 -133 105 -185 89 -149 143 -257 138
-272 -3 -7 -45 -38 -92 -68 -48 -30 -112 -72 -144 -92 -31 -20 -61 -37 -67
-37 -16 -1 -118 153 -465 701 -52 82 -139 217 -194 299 -98 148 -98 150 -80
170 21 24 341 239 355 239 5 0 15 -10 22 -22z m15920 -34 c252 -159 303 -199
270 -211 -7 -3 -13 -9 -13 -14 0 -15 -342 -526 -638 -953 -35 -50 -73 -106
-85 -123 -12 -18 -30 -33 -39 -33 -25 0 -272 154 -299 186 -10 13 -10 20 1 37
20 33 119 204 153 267 16 30 37 66 46 80 23 37 33 52 113 189 40 68 83 140 95
160 13 20 26 43 30 51 3 8 36 62 71 120 36 58 81 131 101 163 20 33 46 71 59
87 12 15 22 33 22 40 0 19 29 7 113 -46z m-10420 -754 c117 -35 193 -113 228
-235 19 -63 30 -271 30 -560 0 -320 -6 -374 -47 -466 -52 -115 -130 -154 -343
-170 -284 -22 -479 21 -545 121 -76 115 -90 235 -83 688 6 360 9 391 54 492
53 119 178 161 468 156 133 -2 173 -7 238 -26z m1099 5 c126 -16 181 -38 235
-92 92 -92 114 -234 113 -716 0 -317 -8 -384 -54 -475 -47 -93 -129 -133 -306
-152 -132 -14 -219 -12 -333 5 -300 45 -333 131 -330 840 1 270 10 356 44 435
38 85 97 128 204 148 33 7 69 13 80 16 48 9 249 4 347 -9z m3564 3 c114 -18
197 -76 234 -164 41 -94 52 -367 19 -467 -27 -81 -115 -153 -236 -193 -26 -8
-57 -19 -68 -24 -11 -5 -83 -30 -160 -56 -149 -49 -199 -74 -215 -105 -11 -19
-16 -196 -7 -205 3 -3 77 -5 164 -4 342 4 509 3 529 -4 18 -6 22 -17 28 -90 3
-47 3 -91 0 -99 -7 -20 -41 -22 -527 -25 -358 -3 -401 -2 -423 13 l-26 17 4
226 c3 212 5 231 27 279 39 88 85 116 336 203 93 32 181 64 225 82 43 17 97
58 108 84 18 38 10 212 -11 251 -32 61 -49 66 -219 62 -179 -5 -212 -16 -238
-85 -25 -65 -26 -66 -93 -60 -34 2 -78 5 -98 5 -52 1 -64 28 -49 111 25 139
93 207 240 241 84 19 351 24 456 7z m1158 -13 c43 -8 98 -24 122 -35 95 -47
167 -155 184 -281 25 -182 36 -602 20 -779 -23 -258 -140 -339 -490 -340 -108
0 -247 14 -311 31 -20 5 -59 26 -87 47 -89 65 -117 137 -133 347 -17 216 -6
721 16 794 44 143 137 215 295 229 110 10 294 4 384 -13z m-7132 -10 c52 -18
90 -55 107 -105 17 -50 20 -137 23 -750 l3 -545 -106 -3 c-88 -2 -108 0 -119
13 -11 13 -15 131 -22 568 -4 304 -10 562 -13 574 -5 20 -6 21 -52 7 -49 -15
-222 -62 -258 -71 -14 -3 -25 4 -38 27 -24 40 -57 154 -48 167 10 17 68 43 94
43 13 0 27 3 31 8 17 16 254 80 302 81 28 1 71 -6 96 -14z m4827 -16 c72 -53
76 -92 80 -885 2 -455 0 -502 -14 -508 -9 -3 -59 -6 -110 -6 -112 0 -118 5
-114 103 2 66 -11 1080 -14 1084 -2 1 -34 -9 -72 -22 -39 -12 -112 -36 -164
-51 -111 -33 -108 -36 -141 88 -18 67 -19 83 -8 94 7 7 83 36 168 64 85 28
166 55 180 60 14 5 59 8 102 6 60 -3 83 -9 107 -27z m9217 -970 c67 -53 164
-148 164 -161 0 -15 -600 -618 -615 -618 -5 0 -46 33 -89 74 -56 52 -77 77
-71 87 21 35 424 488 512 576 29 29 53 57 53 63 0 15 3 13 46 -21z m-20491
-76 c37 -43 100 -116 140 -163 143 -165 270 -316 304 -359 l34 -44 -74 -73
c-41 -40 -81 -74 -89 -74 -25 0 -600 589 -600 615 0 10 41 58 90 107 77 75 94
87 110 78 10 -5 49 -45 85 -87z m3400 -633 c131 -19 185 -40 241 -95 60 -60
82 -114 93 -233 10 -98 -2 -236 -24 -289 -19 -44 -61 -91 -92 -104 -25 -9 -31
-29 -10 -29 23 0 87 -61 107 -102 61 -127 48 -417 -23 -523 -71 -106 -152
-134 -402 -142 -442 -14 -572 51 -606 303 -14 106 -7 269 15 341 18 56 64 105
125 130 32 14 33 16 16 25 -35 19 -76 62 -98 103 -30 57 -38 323 -12 411 30
106 96 164 225 200 55 15 346 18 445 4z m1205 -15 c96 -9 212 -47 263 -88 45
-35 83 -108 104 -202 20 -84 30 -725 14 -859 -26 -220 -88 -299 -267 -342
-101 -24 -389 -24 -504 0 -102 22 -129 35 -181 87 -95 95 -110 187 -112 692
-1 374 0 396 20 469 28 100 59 145 132 189 58 35 81 41 261 62 34 4 179 0 270
-8z m12905 -201 c94 -12 143 -33 203 -88 62 -58 103 -123 122 -195 19 -71 38
-439 36 -666 -3 -185 -6 -218 -25 -278 -57 -175 -213 -239 -551 -224 -287 12
-394 76 -435 261 -30 135 -39 694 -14 896 22 182 122 279 309 300 67 7 283 4
355 -6z m-2299 -40 c43 -32 63 -65 73 -119 5 -27 10 -324 12 -660 l4 -610
-104 -3 c-61 -2 -108 1 -116 8 -18 15 -31 355 -37 998 -2 142 -4 163 -18 159
-8 -3 -49 -14 -90 -25 -41 -12 -106 -30 -144 -41 -63 -19 -71 -19 -87 -5 -24
22 -61 129 -57 167 3 32 3 32 154 82 83 28 166 55 185 61 19 6 71 10 116 10
66 -1 87 -5 109 -22z m1290 1 c12 -15 14 -96 14 -461 0 -243 3 -449 6 -458 5
-12 21 -16 72 -16 92 0 102 -11 102 -111 0 -51 -4 -81 -12 -86 -7 -4 -46 -10
-87 -13 l-73 -5 1 -126 c2 -109 0 -127 -14 -133 -9 -3 -58 -6 -110 -6 -74 0
-95 3 -106 16 -9 11 -16 56 -19 133 l-5 116 -298 5 -299 5 -29 33 c-31 35 -31
35 -30 237 0 98 9 127 55 195 82 118 422 575 482 647 l35 42 82 3 c183 7 218
4 233 -17z m-5533 -685 c5 -4 -16 -77 -46 -161 -30 -85 -60 -170 -65 -189 -15
-47 -64 -189 -97 -275 -15 -38 -33 -88 -40 -110 -7 -22 -32 -92 -55 -155 -23
-63 -44 -124 -47 -135 -14 -51 -52 -65 -132 -49 -25 5 -31 11 -31 32 0 25 77
260 185 567 31 88 60 171 65 185 46 135 93 258 105 276 8 13 27 24 42 27 35 5
105 -3 116 -13z m-2155 -63 c9 -7 12 -67 12 -237 0 -181 3 -230 14 -239 14
-12 46 -5 46 10 0 9 32 62 110 179 l36 55 75 3 c118 4 118 0 4 -167 -52 -77
-95 -143 -95 -146 0 -3 54 -81 120 -173 66 -91 116 -170 111 -175 -4 -4 -46
-7 -92 -5 l-84 3 -82 120 c-121 177 -121 177 -145 164 -18 -10 -20 -17 -14
-97 4 -48 3 -109 -1 -137 l-8 -50 -60 -3 c-108 -5 -100 -42 -100 465 l0 438
55 5 c58 6 77 3 98 -13z m2463 7 c12 -14 17 -76 18 -228 l1 -78 34 30 c48 42
97 56 169 48 121 -12 171 -41 204 -116 21 -47 32 -522 13 -545 -18 -22 -133
-21 -151 2 -11 12 -15 73 -19 254 -5 223 -6 239 -25 253 -25 19 -115 21 -158
3 -61 -26 -62 -28 -67 -286 l-5 -236 -70 0 c-65 0 -71 2 -81 25 -17 35 -26
844 -10 865 6 8 31 15 56 17 25 2 53 4 62 5 9 1 22 -5 29 -13z m-1490 -248
c20 -9 46 -28 57 -43 16 -21 24 -25 35 -18 111 78 131 85 239 73 118 -12 164
-55 184 -168 17 -101 19 -486 2 -496 -17 -11 -140 -5 -154 7 -8 6 -13 84 -16
243 -4 290 -4 290 -109 284 -59 -3 -72 -8 -98 -32 l-30 -29 4 -221 c1 -123 -1
-229 -6 -238 -8 -15 -23 -18 -77 -18 -37 0 -73 4 -79 8 -9 6 -14 75 -17 257
-3 225 -5 250 -22 262 -16 12 -67 18 -104 13 -30 -4 -81 -33 -91 -52 -6 -11
-12 -115 -14 -246 -1 -125 -3 -230 -4 -234 0 -5 -32 -8 -69 -8 -106 0 -100
-18 -102 338 0 218 2 308 11 318 7 9 31 14 65 14 56 0 84 -17 84 -51 0 -25 18
-24 40 3 43 53 183 71 271 34z m12653 -190 c112 -143 184 -251 178 -263 -8
-12 -54 -45 -237 -166 -66 -43 -131 -88 -145 -98 -134 -101 -743 -509 -759
-509 -15 0 -221 280 -221 301 0 11 154 137 325 264 88 66 166 125 174 133 20
19 194 152 320 245 58 42 123 91 143 107 20 17 41 30 45 30 5 0 24 15 43 34
42 41 41 42 134 -78z m-24322 66 c18 -15 51 -41 73 -58 22 -17 77 -60 123 -95
46 -35 112 -86 147 -114 35 -27 89 -70 122 -95 32 -25 60 -47 63 -50 3 -3 39
-32 80 -65 72 -58 188 -153 240 -198 14 -11 43 -35 66 -53 71 -55 84 -68 84
-86 0 -17 -189 -280 -211 -294 -6 -3 -25 4 -42 17 -18 13 -75 53 -127 89 -149
104 -431 302 -477 335 -62 44 -351 248 -376 264 -39 26 -77 64 -77 78 0 16 45
87 78 123 12 14 22 28 22 31 0 4 15 25 33 48 17 22 50 65 72 95 22 31 48 56
57 56 10 0 32 -12 50 -28z m-6625 -1074 c-3 -7 -5 -2 -5 12 0 14 2 19 5 13 2
-7 2 -19 0 -25z m-7 -92 c-5 -21 -14 -44 -21 -50 -9 -8 -10 -6 -4 9 4 11 9 37
12 58 3 21 9 35 14 30 4 -4 4 -25 -1 -47z m4 -578 c-1 -536 -13 -1571 -20
-1743 -2 -55 -4 -175 -4 -267 0 -152 -1 -166 -17 -164 -10 2 -21 14 -25 27 -5
19 -7 16 -5 -13 1 -20 -2 -40 -6 -45 -4 -4 -7 43 -6 105 1 61 5 109 9 107 5
-3 11 2 14 11 11 28 6 38 -8 18 -13 -17 -14 -12 -14 51 1 39 5 72 9 76 5 3 4
20 -1 39 -9 31 -7 543 6 1320 2 168 4 331 4 362 -1 31 4 66 9 77 7 13 8 22 1
26 -5 3 -10 32 -10 63 0 35 4 52 9 44 6 -11 9 -9 14 7 3 11 0 19 -5 18 -6 -1
-13 4 -16 12 -3 9 0 12 9 9 12 -5 14 2 11 29 -3 25 -7 31 -13 22 -6 -9 -9 -2
-9 21 1 19 7 44 15 54 14 18 15 18 15 2 0 -9 4 -15 9 -12 8 5 12 76 4 76 -2 0
-8 -10 -13 -22 l-9 -23 0 23 c-1 13 -5 20 -11 17 -5 -3 -10 -2 -10 4 0 5 5 13
11 17 8 4 7 9 -2 16 -10 7 -8 8 9 5 17 -4 23 0 28 18 3 13 3 28 0 34 -3 5 -2
20 3 33 5 15 5 31 0 41 -7 12 -6 17 3 17 11 0 13 -98 12 -512z m-34 427 c-5
-14 -11 -25 -13 -25 -2 0 -4 24 -5 53 -3 51 -2 52 12 24 11 -20 13 -35 6 -52z
m8850 -320 c58 -3 125 -11 150 -17 93 -23 170 -95 190 -177 13 -57 18 -166 7
-177 -10 -10 -188 -18 -221 -10 -18 4 -26 15 -31 38 -12 62 -17 68 -55 88 -34
18 -59 20 -202 20 -181 0 -211 -9 -242 -69 -21 -39 -38 -154 -34 -227 l3 -59
195 -1 c384 -2 502 -38 564 -168 45 -94 56 -322 25 -483 -15 -74 -62 -167
-102 -197 -88 -67 -238 -93 -487 -83 -236 10 -317 31 -377 101 -78 87 -92 197
-88 661 5 447 22 546 111 644 20 23 50 49 66 57 44 23 148 53 202 58 26 3 50
6 51 8 5 4 150 1 275 -7z m1335 -32 c39 -9 86 -24 105 -34 79 -40 138 -126
159 -232 17 -84 33 -496 26 -681 -11 -315 -50 -424 -178 -495 -120 -67 -496
-78 -681 -21 -56 18 -78 31 -117 71 -89 91 -109 212 -110 679 -2 403 17 529
93 615 47 54 116 91 184 101 27 4 74 10 104 14 82 12 335 1 415 -17z m17776
-223 c83 -14 152 -58 191 -121 34 -56 59 -192 39 -212 -19 -19 -232 -17 -241
3 -45 97 -43 94 -100 108 -76 18 -323 9 -357 -14 -41 -26 -55 -76 -54 -192 0
-57 3 -111 6 -120 4 -15 24 -17 179 -14 289 6 427 -18 500 -86 16 -15 42 -55
58 -90 25 -54 30 -83 39 -200 11 -166 1 -261 -40 -348 -31 -67 -83 -112 -156
-134 -67 -20 -403 -25 -523 -6 -112 16 -151 34 -201 92 -84 95 -101 226 -104
799 -2 269 0 305 17 353 43 125 139 179 336 191 143 8 331 4 411 -9z m1194 -5
c154 -41 234 -139 254 -315 30 -262 41 -711 20 -825 -15 -84 -50 -154 -100
-202 -78 -74 -170 -95 -411 -94 -299 1 -409 42 -476 176 -50 102 -63 225 -64
615 -1 365 17 465 96 552 51 55 125 95 198 107 83 14 413 4 483 -14z m-2388
-21 c47 -35 71 -80 78 -147 9 -89 21 -666 21 -977 l-1 -265 -107 -3 c-95 -2
-108 -1 -117 15 -13 25 -28 490 -32 1036 -1 64 -4 119 -9 122 -4 2 -43 -6 -86
-19 -43 -13 -115 -33 -158 -45 l-80 -23 -18 24 c-16 21 -36 76 -53 149 -6 25
-3 28 65 54 40 15 131 45 203 66 154 46 245 49 294 13z m5784 -688 c58 -121
58 -121 37 -136 -12 -8 -114 -54 -227 -103 -113 -48 -229 -99 -258 -112 -28
-14 -56 -25 -61 -25 -5 0 -44 -16 -86 -35 -43 -19 -84 -35 -92 -35 -7 0 -14
-4 -14 -9 0 -17 -54 -20 -72 -4 -21 19 -88 159 -88 183 0 10 15 27 33 38 43
27 268 139 502 252 105 50 201 97 214 104 14 8 31 11 39 8 8 -3 41 -60 73
-126z m-34041 -556 c0 -5 -4 -10 -10 -10 -5 0 -10 5 -10 10 0 6 5 10 10 10 6
0 10 -4 10 -10z m1498 -853 c1 -33 -2 -57 -8 -57 -9 0 -14 20 -11 47 1 6 -3
14 -9 18 -6 4 -10 -6 -10 -24 0 -17 -3 -31 -7 -31 -15 0 -9 85 7 97 26 21 35
9 38 -50z m-8 -127 c0 -22 -2 -40 -4 -40 -2 0 -6 18 -8 40 -2 22 0 40 4 40 5
0 8 -18 8 -40z m-43 -32 c-3 -7 -5 -2 -5 12 0 14 2 19 5 13 2 -7 2 -19 0 -25z
m40 -135 c-3 -10 -5 -2 -5 17 0 19 2 27 5 18 2 -10 2 -26 0 -35z m0 -95 c-3
-7 -5 -2 -5 12 0 14 2 19 5 13 2 -7 2 -19 0 -25z m4263 -711 c121 -33 180 -49
290 -83 102 -31 223 -68 360 -109 97 -29 136 -38 148 -36 6 1 12 -2 12 -7 0
-5 19 -12 42 -16 23 -4 56 -13 72 -20 17 -8 58 -22 91 -31 68 -19 145 -54 145
-66 0 -16 -70 -295 -81 -321 -7 -16 -19 -28 -30 -28 -10 0 -87 16 -171 36 -84
19 -211 49 -283 65 -71 17 -184 43 -250 59 -139 33 -339 81 -440 105 -38 9
-86 24 -105 34 -31 15 -35 20 -32 51 2 31 35 176 62 280 5 19 12 46 16 60 3
14 13 32 21 41 15 18 12 18 133 -14z m29230 -17 c0 -5 -4 -10 -10 -10 -5 0 -7
-7 -4 -15 8 -19 -22 -31 -39 -17 -8 7 -18 7 -27 2 -12 -8 -10 -10 9 -10 19 0
22 -4 18 -21 -4 -15 0 -23 14 -26 28 -8 23 -23 -8 -24 l-28 -1 25 -8 c21 -6
22 -8 8 -15 -27 -11 0 -48 30 -40 12 3 22 1 22 -5 0 -5 -4 -10 -10 -10 -5 0
-10 -5 -10 -12 0 -6 -14 -24 -32 -38 -31 -26 -31 -28 -18 -60 9 -22 10 -35 3
-37 -26 -9 -45 -31 -46 -56 -1 -15 -5 -27 -9 -27 -5 0 -8 -4 -8 -10 0 -5 8
-10 17 -10 21 0 12 -9 -15 -15 -11 -2 -23 3 -26 11 -3 8 -1 14 4 14 6 0 10 7
10 15 0 13 -4 12 -21 -4 -13 -12 -18 -24 -13 -33 5 -9 2 -8 -11 2 -17 14 -18
13 -13 -7 5 -19 0 -22 -41 -28 -25 -4 -67 -14 -94 -22 -28 -9 -61 -13 -80 -9
-17 3 -27 3 -20 -2 6 -4 -35 -17 -95 -30 -59 -13 -123 -27 -142 -32 -235 -57
-418 -93 -431 -84 -5 3 -9 1 -9 -4 0 -10 -88 -32 -126 -32 -17 0 -27 8 -35 27
-22 60 -92 323 -86 329 3 3 20 10 39 15 18 4 74 20 123 34 50 14 131 37 180
50 156 41 406 110 480 132 28 8 68 18 90 22 23 4 46 10 52 14 7 4 31 11 55 16
24 5 88 21 143 36 55 14 114 24 130 21 17 -2 24 -2 16 1 -11 5 -11 7 0 14 19
12 39 11 39 -1z m27 -102 c-3 -8 -6 -5 -6 6 -1 11 2 17 5 13 3 -3 4 -12 1 -19z
m23 -38 c0 -5 -4 -10 -9 -10 -6 0 -13 5 -16 10 -3 6 1 10 9 10 9 0 16 -4 16
-10z m-98 -272 c-9 -9 -15 -9 -24 0 -10 10 -10 15 2 22 20 12 38 -6 22 -22z
m-25076 -31 c128 -44 180 -101 215 -235 17 -65 21 -122 26 -372 8 -393 -5
-573 -48 -675 -66 -160 -183 -207 -509 -204 -260 2 -363 29 -440 117 -85 96
-106 257 -97 762 9 454 26 506 193 594 69 36 158 45 389 41 181 -3 207 -5 271
-28z m-1209 1 c11 -12 14 -96 13 -490 l0 -476 22 -6 c13 -3 48 -6 79 -6 77 0
91 -17 88 -102 -4 -114 -3 -112 -100 -118 l-84 -5 -5 -130 c-3 -71 -9 -136
-13 -142 -10 -15 -203 -13 -229 3 -15 8 -18 29 -20 139 l-3 130 -330 10 c-287
9 -334 12 -358 27 -33 22 -38 50 -40 219 -1 156 10 193 92 288 26 31 67 83 91
116 25 33 69 89 100 125 52 61 136 163 152 185 53 71 192 236 205 245 27 16
322 6 340 -12z m23778 -104 c95 -38 183 -124 215 -209 29 -78 37 -139 50 -375
20 -380 9 -574 -39 -668 -29 -56 -86 -110 -146 -138 -134 -61 -549 -58 -680 6
-82 40 -139 122 -169 243 -32 130 -43 734 -15 892 6 39 20 86 29 105 30 60
117 128 193 152 69 22 220 33 355 26 117 -5 147 -10 207 -34z m-1297 26 c223
-25 312 -142 312 -410 0 -151 -9 -181 -75 -246 l-54 -52 28 -12 c100 -41 151
-206 131 -417 -14 -147 -57 -225 -150 -273 -112 -57 -552 -63 -692 -10 -98 37
-160 110 -186 220 -29 125 -23 320 15 398 19 40 79 92 107 92 25 0 20 9 -33
56 -68 61 -91 124 -98 271 -5 97 -2 122 17 185 12 40 28 77 36 81 8 4 14 13
14 20 1 21 112 78 180 92 78 15 333 19 448 5z m-1150 -24 c39 -20 57 -45 75
-101 17 -52 18 -72 33 -946 l6 -356 -25 -7 c-45 -11 -191 3 -203 19 -12 16
-22 191 -29 505 -10 439 -18 651 -26 655 -4 3 -20 0 -36 -6 -15 -6 -83 -26
-150 -44 l-122 -32 -20 21 c-19 21 -61 142 -61 175 0 12 14 22 43 31 23 7 60
19 82 26 54 18 212 64 255 75 46 11 144 3 178 -15z m-9503 -2909 c27 -18 55
-46 64 -62 9 -17 26 -46 38 -65 25 -41 68 -120 93 -170 24 -49 33 -120 14
-120 -8 0 -14 -6 -14 -13 0 -18 -45 -59 -54 -50 -4 4 -4 0 0 -10 4 -12 1 -17
-13 -17 -11 0 -28 -9 -37 -19 -10 -11 -23 -17 -30 -15 -7 3 -19 -2 -26 -11 -7
-8 -22 -15 -34 -15 -12 0 -29 -9 -38 -19 -9 -11 -33 -23 -52 -27 -20 -3 -36
-10 -36 -15 0 -5 -6 -9 -14 -9 -8 0 -21 -6 -28 -13 -7 -7 -29 -19 -48 -27 -19
-7 -47 -22 -62 -32 -14 -10 -31 -18 -36 -18 -6 0 -20 -12 -31 -26 -12 -15 -21
-23 -21 -19 0 4 -6 3 -12 -3 -7 -5 -28 -13 -45 -17 -18 -3 -33 -10 -33 -15 0
-9 -40 -25 -54 -22 -5 2 -17 -5 -27 -14 -11 -9 -19 -14 -19 -10 0 4 -7 0 -16
-8 -8 -9 -27 -16 -42 -16 -21 0 -24 -3 -12 -10 12 -7 11 -10 -5 -15 -11 -4
-28 -11 -37 -16 -10 -5 -24 -9 -31 -9 -7 0 -20 -9 -30 -20 -10 -12 -22 -18
-27 -15 -6 3 -10 1 -10 -4 0 -6 -9 -11 -20 -11 -11 0 -20 -4 -20 -10 0 -5 -6
-10 -13 -10 -8 0 -36 -16 -63 -35 -27 -19 -63 -38 -81 -41 -17 -3 -39 -15 -49
-25 -9 -10 -21 -19 -26 -19 -5 0 -18 -9 -30 -20 -12 -11 -35 -20 -50 -20 -16
0 -31 -7 -34 -15 -4 -8 -12 -15 -19 -15 -7 0 -23 -9 -37 -19 -13 -11 -37 -23
-51 -26 -15 -4 -27 -11 -27 -16 0 -5 -11 -15 -25 -21 -14 -6 -25 -17 -25 -25
0 -8 -11 -13 -28 -13 -16 0 -32 -8 -39 -19 -7 -11 -26 -22 -43 -26 -16 -4 -30
-11 -30 -16 0 -5 -8 -9 -19 -9 -10 0 -29 -8 -42 -18 -32 -24 -75 -42 -99 -42
-11 0 -20 -6 -20 -14 0 -7 -20 -19 -45 -26 -25 -7 -45 -18 -45 -25 0 -15 -37
-34 -75 -37 -22 -2 -29 -8 -27 -20 2 -10 -2 -18 -8 -18 -5 0 -20 -10 -31 -21
-20 -20 -23 -20 -31 -5 -13 23 -21 20 -36 -14 -10 -22 -21 -30 -39 -30 -14 0
-36 -9 -49 -19 -14 -11 -33 -17 -45 -14 -13 4 -19 1 -17 -7 2 -7 -5 -14 -16
-15 -10 -2 -29 -13 -41 -25 -13 -12 -28 -19 -34 -16 -5 4 -13 0 -18 -7 -4 -7
-15 -17 -23 -20 -8 -4 -22 -11 -30 -16 -8 -5 -32 -17 -52 -25 -20 -9 -40 -21
-43 -26 -3 -6 -17 -10 -31 -10 -18 0 -28 -8 -37 -28 -7 -17 -20 -27 -32 -27
-11 0 -28 -6 -39 -15 -10 -8 -28 -15 -40 -15 -12 0 -25 -9 -31 -22 -5 -13 -18
-23 -28 -23 -10 0 -16 -4 -13 -9 3 -5 -1 -12 -10 -15 -25 -10 -36 -7 -28 7 5
8 2 7 -9 -2 -10 -7 -16 -21 -15 -30 2 -12 -4 -15 -25 -13 -18 2 -29 -2 -33
-13 -4 -9 -13 -14 -20 -11 -7 3 -16 -4 -19 -15 -4 -10 -13 -19 -21 -19 -8 0
-14 -5 -14 -11 0 -6 -7 -9 -15 -5 -8 3 -15 1 -15 -5 0 -6 -8 -8 -19 -4 -13 4
-23 -2 -35 -20 -9 -14 -22 -25 -29 -25 -7 0 -18 -9 -25 -20 -14 -23 -34 -27
-26 -5 4 8 3 15 -1 15 -13 0 -32 -25 -27 -38 2 -8 -2 -10 -13 -6 -9 4 -24 -1
-35 -11 -10 -9 -24 -14 -29 -10 -6 3 -11 1 -11 -4 0 -6 -5 -11 -10 -11 -6 0
-24 -13 -40 -28 -29 -29 -40 -32 -93 -34 -17 0 -24 -4 -17 -8 7 -4 9 -13 6
-19 -4 -6 -12 -9 -17 -5 -17 10 -59 -5 -59 -21 0 -8 -6 -15 -14 -15 -7 0 -19
-7 -26 -15 -7 -8 -21 -15 -30 -15 -10 0 -32 -12 -49 -26 -26 -21 -34 -24 -46
-14 -12 10 -15 9 -15 -5 0 -11 -5 -15 -15 -11 -9 3 -19 -3 -26 -15 -5 -11 -15
-19 -22 -16 -6 2 -23 -11 -39 -27 -21 -24 -27 -27 -28 -13 0 10 7 17 18 17 14
0 15 2 2 10 -11 7 -18 5 -26 -5 -6 -8 -14 -15 -18 -15 -4 0 -14 -6 -22 -14
-11 -11 -11 -16 -1 -19 7 -3 4 -6 -6 -6 -10 -1 -27 4 -37 9 -16 8 -18 7 -14
-4 7 -17 -24 -36 -60 -36 -19 0 -26 -5 -26 -20 0 -11 -6 -20 -13 -20 -7 0 -24
-11 -39 -25 -15 -14 -31 -25 -37 -25 -5 0 -12 -6 -15 -12 -5 -10 -7 -10 -12 0
-8 18 -27 15 -20 -4 4 -11 2 -15 -8 -11 -8 3 -20 0 -26 -8 -6 -7 -22 -16 -35
-19 -14 -4 -24 -11 -22 -17 1 -7 -22 -19 -50 -27 -29 -9 -53 -22 -53 -29 0
-11 -34 -19 -62 -14 -4 0 -3 -11 3 -26 8 -21 7 -24 -3 -15 -8 7 -26 7 -48 2
-19 -4 -31 -8 -27 -9 16 -2 -18 -27 -60 -46 -24 -10 -43 -23 -43 -28 0 -5 -13
-6 -30 -2 -24 5 -30 3 -30 -9 0 -10 -12 -19 -29 -22 -20 -4 -28 -11 -24 -20 5
-14 -3 -17 -40 -17 -11 0 -16 -5 -13 -13 4 -10 -3 -14 -26 -14 -17 0 -28 -3
-24 -7 6 -7 -79 -51 -101 -52 -7 -1 -21 -11 -33 -23 -11 -12 -30 -23 -42 -25
-12 -2 -31 -12 -43 -22 -11 -10 -25 -16 -32 -14 -7 2 -15 -7 -19 -21 -6 -27
-23 -36 -25 -13 0 9 -2 9 -6 0 -4 -11 -102 -63 -145 -77 -10 -3 -18 -13 -18
-21 0 -9 -5 -13 -10 -10 -6 4 -8 11 -5 16 4 5 1 9 -4 9 -6 0 -11 -4 -11 -10 0
-5 -9 -10 -21 -10 -15 0 -19 -5 -15 -15 3 -9 0 -15 -9 -15 -8 0 -19 -9 -24
-19 -8 -14 -21 -19 -47 -18 -24 1 -41 -5 -49 -16 -7 -9 -17 -17 -24 -17 -6 0
-11 -4 -11 -10 0 -5 -7 -10 -16 -10 -8 0 -13 4 -9 9 3 6 -7 6 -27 0 -18 -5
-35 -9 -37 -9 -2 0 -1 -6 2 -14 4 -9 -3 -16 -19 -20 -13 -4 -24 -11 -24 -17 0
-10 -90 -52 -97 -45 -3 2 -13 -4 -24 -15 -25 -25 -47 -24 -52 4 -3 22 -4 21
-14 -4 -8 -17 -22 -28 -42 -32 -22 -5 -32 -14 -37 -32 -3 -14 -11 -22 -17 -18
-5 3 -15 -1 -21 -9 -18 -25 -54 -32 -59 -11 -3 10 -5 -1 -6 -24 -1 -40 -15
-63 -29 -48 -4 4 -1 10 6 12 6 3 12 14 12 26 -1 22 -1 21 -23 -3 -12 -14 -30
-24 -39 -22 -12 2 -18 -3 -19 -15 -1 -16 -2 -17 -6 0 -5 21 -23 23 -23 2 0 -8
-7 -15 -16 -15 -8 0 -12 -4 -9 -10 3 -5 -1 -20 -9 -32 -14 -20 -16 -20 -16 -4
0 11 -5 16 -14 13 -8 -3 -22 4 -33 15 -18 21 -18 21 12 14 l30 -8 -27 24 c-35
30 -29 66 13 75 16 3 29 10 29 15 0 5 -4 7 -8 4 -15 -9 -54 25 -48 41 4 9 -1
17 -13 20 -11 3 -17 11 -15 18 3 7 1 16 -5 20 -7 4 -11 -5 -11 -24 0 -19 5
-30 12 -29 14 3 19 -40 11 -85 -6 -32 -28 -31 -28 1 0 12 -4 22 -8 22 -4 0 -7
-2 -7 -5 0 -3 0 -26 0 -51 0 -37 3 -45 15 -40 12 4 14 0 9 -19 -5 -20 -3 -24
10 -19 21 8 34 -25 15 -37 -8 -5 -15 -4 -17 1 -6 16 -30 11 -41 -7 -8 -15 -12
-16 -22 -5 -11 10 -10 12 0 12 8 0 11 7 8 20 -3 11 -1 20 4 20 5 0 9 9 9 20 0
15 -7 20 -25 20 -14 0 -25 4 -25 9 0 5 8 8 18 7 12 -1 18 7 20 27 3 20 -1 27
-15 28 -15 0 -14 2 5 9 25 10 28 25 9 37 -15 9 -30 43 -19 43 4 0 13 -10 20
-21 19 -30 31 -11 24 35 l-7 38 -19 -21 c-11 -12 -29 -21 -40 -21 -36 0 -65
11 -62 23 2 7 1 9 -1 4 -3 -4 -8 -5 -12 -3 -11 7 0 -57 11 -71 7 -9 7 -13 0
-13 -6 0 -20 20 -32 45 -26 53 -35 57 -26 13 5 -31 5 -32 -7 -10 -7 12 -16 19
-20 16 -4 -4 -7 5 -7 20 0 32 -19 26 -21 -7 -1 -12 -5 -4 -8 18 l-6 40 -14
-31 c-8 -17 -27 -40 -43 -50 -15 -11 -28 -26 -29 -34 -1 -11 -3 -10 -6 3 -2 9
-11 18 -19 18 -27 3 -32 4 -40 12 -7 7 -3 8 36 11 59 6 79 18 86 52 4 23 11
33 19 30 7 -2 26 9 41 25 20 21 35 28 50 25 17 -5 23 0 28 19 4 16 16 27 33
31 15 4 35 17 45 28 12 15 17 17 18 7 0 -9 12 -2 28 17 16 18 33 32 39 32 6 0
16 7 23 15 7 8 22 15 35 15 12 0 30 9 40 19 16 19 34 29 145 86 25 13 55 33
67 44 12 12 29 21 38 21 9 0 25 9 37 20 12 11 28 20 35 20 7 0 22 9 33 20 11
11 27 20 35 20 8 0 15 5 15 10 0 6 12 10 26 10 17 0 23 4 18 12 -5 8 -2 9 9 5
10 -4 17 -1 17 6 0 7 21 21 47 32 25 11 52 26 60 34 8 8 26 15 40 17 15 1 36
13 49 26 40 40 54 49 66 42 6 -4 16 0 22 8 6 8 23 23 39 32 21 14 27 15 27 5
0 -8 10 -2 24 13 12 15 26 25 30 21 3 -3 6 -1 6 5 0 7 8 12 18 12 11 0 27 9
37 20 13 14 25 18 48 13 21 -4 28 -3 23 5 -9 16 7 15 22 0 9 -9 12 -8 12 4 0
33 94 109 103 85 4 -9 8 -8 17 3 9 11 13 12 17 3 2 -7 9 -13 15 -13 6 0 5 6
-2 15 -16 19 -14 20 28 28 28 6 34 3 42 -16 5 -12 9 -18 9 -13 1 5 8 3 16 -4
12 -10 15 -10 15 3 0 8 -7 17 -15 21 -25 9 -18 36 11 36 14 0 23 4 19 10 -3 6
0 10 7 10 7 0 23 15 36 34 13 19 34 37 48 40 13 4 24 11 24 16 0 6 7 10 16 10
10 0 14 -6 11 -14 -3 -8 0 -13 8 -12 20 3 30 14 30 34 0 9 8 18 18 20 11 2 27
12 38 23 24 24 40 25 33 2 -5 -14 -4 -15 4 -4 6 8 8 20 5 27 -3 8 8 15 31 20
20 3 36 10 36 15 0 5 6 9 14 9 8 0 17 7 20 16 3 9 13 14 20 11 16 -6 40 16 29
26 -3 4 8 7 25 7 22 0 32 5 32 15 0 12 7 14 27 9 23 -6 25 -4 20 15 -4 15 -1
21 11 21 10 0 34 14 55 30 22 16 45 26 53 23 8 -3 14 0 14 6 0 6 16 18 36 26
21 8 42 22 48 29 6 8 33 26 61 41 27 14 57 33 66 41 10 9 23 13 28 9 6 -3 22
5 35 19 13 14 31 26 40 26 9 0 16 6 16 14 0 17 27 28 51 21 13 -4 19 -1 19 9
0 9 8 16 19 16 11 0 33 11 49 25 17 14 35 25 40 25 6 0 24 14 40 31 22 24 40
32 76 36 25 3 49 10 52 14 3 5 14 9 24 9 10 0 27 14 37 30 17 30 63 43 63 18
0 -12 5 -9 78 61 24 22 47 40 50 39 14 -4 57 15 68 29 5 8 34 23 64 34 30 10
66 30 80 44 14 14 34 25 43 25 19 0 77 37 90 58 4 6 14 12 22 12 7 0 20 6 27
13 7 8 26 17 43 21 16 4 49 21 73 37 23 16 47 29 53 29 5 0 9 5 9 11 0 7 10 9
25 7 17 -4 25 -1 25 8 0 8 7 14 15 14 8 0 15 4 15 9 0 5 12 12 27 16 23 5 78
38 93 55 3 3 19 11 35 18 17 8 47 23 68 33 21 11 42 17 47 14 6 -3 10 -1 10 4
0 6 7 11 15 11 8 0 24 9 34 19 10 10 30 22 43 26 12 4 39 21 58 37 56 47 171
118 190 118 10 0 20 3 22 8 4 9 76 48 108 57 14 4 38 18 53 31 16 13 37 24 48
24 11 0 22 7 25 15 4 8 12 15 20 15 15 0 81 35 105 56 8 8 21 14 28 14 7 0 46
23 87 50 41 28 79 50 84 50 6 0 28 12 49 26 22 14 46 26 54 28 8 1 27 11 43
21 46 31 65 42 140 79 39 20 77 42 84 51 7 8 23 15 37 15 13 0 22 4 19 9 -4 5
7 12 24 16 16 4 30 12 30 20 0 7 11 16 25 19 13 3 35 17 49 30 13 14 26 23 29
20 7 -7 127 65 127 77 0 6 6 9 13 6 6 -2 40 14 75 35 34 21 67 38 72 38 5 0
13 6 17 13 9 13 44 32 81 42 12 4 22 11 22 16 0 5 8 9 17 9 9 0 13 3 9 7 -8 9
64 30 105 32 15 1 48 -13 74 -32z m-10767 -1201 c166 -39 231 -111 265 -289 8
-42 11 -80 6 -82 -4 -3 -3 -18 2 -33 16 -39 3 -545 -15 -581 -7 -14 -11 -38
-10 -53 2 -16 -1 -28 -7 -28 -5 0 -9 -15 -9 -34 0 -18 -7 -46 -14 -62 -8 -15
-13 -31 -10 -36 9 -14 -4 -9 -21 8 -15 15 -15 14 -9 -10 5 -20 2 -26 -10 -26
-9 0 -16 -7 -16 -15 0 -9 6 -12 15 -9 8 4 15 1 15 -5 0 -6 -2 -11 -4 -11 -2 0
-11 -3 -20 -6 -10 -4 -16 -1 -16 9 0 8 -6 18 -12 20 -10 4 -9 8 2 17 11 9 12
13 3 17 -7 2 -13 12 -13 20 0 10 -6 14 -20 10 -13 -3 -20 0 -20 9 0 8 5 14 10
14 6 0 10 5 10 10 0 6 -7 10 -16 10 -10 0 -14 5 -10 16 3 8 2 13 -3 10 -5 -4
-7 -23 -4 -44 4 -28 0 -44 -17 -64 -12 -16 -28 -28 -37 -28 -13 0 -13 2 -2 17
12 15 12 16 -5 10 -15 -6 -17 -4 -11 10 4 10 15 38 24 63 9 25 18 46 21 47 11
6 3 689 -9 737 -28 119 -66 149 -208 166 -111 13 -259 1 -298 -24 -43 -28 -74
-89 -89 -176 -8 -46 -12 -88 -9 -93 3 -5 -1 -13 -8 -18 -12 -8 -12 -11 1 -20
9 -6 11 -12 5 -15 -6 -2 -9 -21 -7 -41 3 -25 1 -34 -7 -29 -7 5 -11 -5 -11
-28 0 -20 5 -36 10 -36 16 0 11 -30 -11 -67 -12 -18 -19 -39 -16 -47 3 -7 1
-19 -4 -27 -7 -11 -9 -11 -9 4 0 22 -18 22 -42 0 -17 -16 -20 -16 -35 0 -16
16 -15 17 15 17 18 0 32 5 32 11 0 5 -8 9 -17 8 -28 -3 -73 12 -67 23 4 5 15
8 25 5 10 -3 21 -1 24 3 8 13 -5 37 -20 37 -8 0 -12 -4 -9 -8 2 -4 0 -10 -6
-14 -6 -4 -10 7 -11 27 l-1 33 -9 -32 c-12 -40 -26 -42 -36 -5 -9 31 -8 239 0
361 13 168 75 281 175 316 26 9 55 21 64 26 10 5 55 12 100 15 46 4 85 8 88
11 10 9 304 -8 358 -21z m-1463 -6 c-8 -13 8 -13 39 1 14 7 33 8 43 4 10 -4
39 -7 64 -6 26 2 50 -2 54 -8 3 -6 16 -11 28 -11 30 0 120 -62 153 -106 20
-25 29 -51 32 -90 2 -30 8 -57 13 -60 5 -3 9 -13 9 -22 0 -15 -2 -15 -10 -2
-8 12 -10 9 -10 -12 0 -16 5 -28 10 -28 6 0 10 -9 10 -21 0 -12 -4 -17 -11
-13 -8 4 -9 0 -4 -15 4 -12 2 -21 -4 -21 -7 0 -8 -17 -4 -47 5 -42 4 -46 -9
-36 -19 17 -30 5 -17 -18 7 -15 6 -19 -6 -19 -10 0 -15 9 -15 28 0 26 -2 28
-36 24 -25 -3 -35 -1 -30 7 5 7 1 9 -8 5 -11 -4 -16 0 -16 10 0 9 6 16 14 16
23 0 31 22 12 32 -9 5 -14 13 -11 18 3 5 -4 11 -15 15 -12 4 -23 18 -27 36 -6
32 -23 30 -24 -4 0 -12 -7 3 -15 33 -8 30 -12 66 -9 81 4 19 1 28 -9 32 -9 4
-16 14 -16 24 0 15 -2 16 -10 3 -9 -13 -11 -13 -20 0 -5 8 -10 28 -10 43 0 20
-4 26 -12 20 -29 -17 -49 -13 -59 14 -7 19 -6 28 3 34 7 4 9 11 6 15 -9 8 -38
-21 -38 -38 0 -7 7 -24 16 -37 21 -29 10 -37 -49 -39 -34 -1 -39 1 -24 9 10 6
28 9 39 6 15 -4 18 -2 12 11 -4 9 -8 28 -8 42 -2 40 -13 52 -36 38 -23 -15
-37 -4 -21 16 8 10 9 16 1 21 -19 11 -10 25 16 25 14 0 23 -4 19 -10z m-70
-10 c3 -5 1 -10 -4 -10 -6 0 -11 5 -11 10 0 6 2 10 4 10 3 0 8 -4 11 -10z
m22090 -241 c154 -19 244 -84 281 -203 21 -67 30 -285 15 -357 -17 -80 -55
-150 -98 -180 -53 -36 -163 -80 -333 -134 -80 -25 -154 -49 -165 -54 -11 -5
-32 -13 -47 -19 -48 -19 -61 -53 -61 -154 0 -58 4 -93 12 -97 6 -4 116 -9 244
-10 418 -4 423 -4 445 -24 18 -16 20 -30 19 -105 l-2 -87 -458 0 -459 0 -25
29 -25 30 4 215 c4 205 5 218 28 266 26 52 96 113 160 141 35 15 142 52 277
94 40 13 101 37 135 54 81 40 99 70 105 179 6 103 -9 153 -56 184 -31 21 -45
23 -158 23 -189 0 -235 -18 -259 -99 l-10 -36 -100 3 c-120 3 -128 9 -121 93
8 96 81 200 150 215 18 3 37 10 43 15 6 5 49 14 95 19 157 18 215 18 364 -1z
m1179 -14 c234 -30 319 -133 335 -405 5 -69 7 -258 6 -420 -2 -245 -5 -306
-20 -360 -47 -176 -124 -232 -344 -251 -178 -16 -413 6 -494 47 -82 42 -139
133 -163 260 -31 171 -29 767 4 909 24 106 93 177 202 207 104 28 312 34 474
13z m1236 -25 c161 -39 226 -80 272 -172 44 -88 53 -178 52 -533 -1 -332 -13
-496 -39 -522 -8 -8 -15 -22 -15 -31 0 -17 -58 -82 -72 -82 -5 0 -21 -11 -36
-25 -15 -14 -34 -25 -44 -25 -9 0 -18 -4 -20 -10 -7 -21 -125 -32 -298 -27
-287 8 -393 51 -451 182 -43 97 -52 200 -53 590 -1 453 7 502 91 583 75 70
184 93 413 87 85 -3 175 -10 200 -15z m-24183 -113 c7 -5 10 -13 8 -18 -3 -4
-15 1 -25 11 -33 33 -21 37 17 7z m-40 -89 c-3 -7 -5 -2 -5 12 0 14 2 19 5 13
2 -7 2 -19 0 -25z m73 0 c21 -4 22 -6 8 -12 -24 -11 -48 0 -48 21 0 12 3 14 8
7 4 -7 18 -14 32 -16z m60 -28 c0 -5 -5 -10 -11 -10 -5 0 -7 5 -4 10 3 6 8 10
11 10 2 0 4 -4 4 -10z m40 -60 c0 -5 -4 -10 -10 -10 -5 0 -10 5 -10 10 0 6 5
10 10 10 6 0 10 -4 10 -10z m300 -180 c0 -5 -2 -10 -4 -10 -3 0 -8 5 -11 10
-3 6 -1 10 4 10 6 0 11 -4 11 -10z m1031 -333 c-10 -9 -11 -8 -5 6 3 10 9 15
12 12 3 -3 0 -11 -7 -18z m-148 -133 c11 -11 -3 -24 -18 -18 -8 4 -12 10 -9
15 6 11 18 12 27 3z m5332 -1034 c3 -5 1 -10 -4 -10 -6 0 -11 5 -11 10 0 6 2
10 4 10 3 0 8 -4 11 -10z m-1171 -152 c10 -37 7 -40 -18 -21 -17 13 -21 21
-14 31 15 18 25 15 32 -10z m886 -8 c0 -5 -2 -10 -4 -10 -3 0 -8 5 -11 10 -3
6 -1 10 4 10 6 0 11 -4 11 -10z m-500 -27 c0 -13 -3 -13 -15 -3 -8 7 -12 16
-9 21 8 13 24 1 24 -18z m-120 7 c0 -5 -2 -10 -4 -10 -3 0 -8 5 -11 10 -3 6
-1 10 4 10 6 0 11 -4 11 -10z m-107 -50 c-3 -11 -7 -20 -9 -20 -2 0 -4 9 -4
20 0 11 4 20 9 20 5 0 7 -9 4 -20z m117 5 c0 -2 -9 -9 -20 -15 -16 -9 -20 -8
-20 5 0 8 9 15 20 15 11 0 20 -2 20 -5z m-169 -28 c-13 -13 -26 -3 -16 12 3 6
11 8 17 5 6 -4 6 -10 -1 -17z m234 -17 c-3 -5 -12 -10 -20 -10 -8 0 -17 5 -20
10 -4 6 5 10 20 10 15 0 24 -4 20 -10z m-125 -60 c0 -5 -5 -10 -11 -10 -5 0
-7 5 -4 10 3 6 8 10 11 10 2 0 4 -4 4 -10z m160 -29 c0 -5 -7 -11 -15 -15 -9
-3 -15 0 -15 9 0 8 7 15 15 15 8 0 15 -4 15 -9z m-125 -31 c3 -5 1 -10 -4 -10
-6 0 -11 5 -11 10 0 6 2 10 4 10 3 0 8 -4 11 -10z m130 -30 c-3 -5 -10 -10
-16 -10 -5 0 -9 5 -9 10 0 6 7 10 16 10 8 0 12 -4 9 -10z m14659 -1665 c121
-32 190 -95 224 -204 21 -69 25 -342 5 -348 -7 -2 -9 -11 -7 -18 9 -22 -35
-101 -77 -140 -36 -33 -137 -85 -165 -85 -8 0 -14 -4 -14 -10 0 -5 -8 -10 -19
-10 -10 0 -45 -12 -77 -26 -32 -14 -68 -27 -79 -29 -11 -1 -33 -7 -48 -14 -16
-6 -50 -16 -75 -23 -26 -6 -58 -18 -72 -27 -13 -9 -24 -15 -25 -13 0 2 -8 0
-17 -3 -28 -11 -50 -96 -43 -162 12 -113 -32 -99 352 -108 401 -8 378 -1 370
-114 -4 -54 -10 -77 -22 -84 -17 -9 -225 -9 -515 -1 -91 3 -211 6 -267 7 -57
1 -103 5 -103 10 0 4 -4 6 -9 3 -5 -3 -14 1 -21 10 -16 19 -22 271 -10 398 8
80 13 94 48 144 32 45 53 62 113 93 41 20 121 51 179 69 157 49 302 108 328
134 30 29 41 80 42 181 0 92 -20 138 -71 159 -37 16 -224 20 -301 7 -64 -11
-104 -41 -110 -81 -6 -47 -21 -53 -113 -45 -106 9 -121 21 -112 97 9 70 51
151 96 182 81 56 189 74 411 71 92 -1 157 -8 204 -20z m1109 -9 c169 -24 249
-77 289 -193 20 -60 23 -85 22 -218 -1 -160 -12 -214 -59 -283 -23 -34 -115
-91 -147 -92 -10 0 -18 -4 -18 -10 0 -5 -8 -10 -18 -10 -10 0 -22 -4 -27 -9
-13 -11 -139 -51 -163 -51 -11 0 -25 -7 -32 -15 -7 -8 -22 -15 -34 -15 -44 0
-161 -51 -195 -84 l-34 -34 1 -103 c1 -63 5 -105 12 -109 10 -6 149 -12 572
-25 70 -2 132 -6 138 -10 13 -8 13 -172 0 -180 -5 -3 -10 2 -10 12 -1 17 -1
17 -14 0 -10 -13 -16 -15 -21 -7 -5 9 -10 9 -18 1 -15 -15 -23 -14 -43 6 -12
12 -35 18 -80 18 -35 1 -64 -2 -64 -7 0 -4 6 -8 13 -9 6 0 3 -4 -8 -9 -29 -12
-89 -12 -102 1 -8 8 -17 8 -31 0 -10 -6 -21 -8 -23 -6 -3 2 -43 6 -89 9 -47 2
-94 8 -104 12 -11 4 -17 4 -14 -2 8 -11 -286 -6 -317 6 -30 11 -33 33 -33 227
-1 276 20 335 144 412 44 26 166 71 198 71 12 0 30 7 40 15 11 8 29 15 40 15
22 0 188 60 237 86 49 25 63 66 63 184 1 178 -30 206 -234 203 -184 -3 -226
-17 -254 -85 -23 -55 -34 -59 -125 -52 -98 8 -116 23 -113 92 1 25 6 50 12 56
5 5 10 19 10 30 0 30 61 103 100 120 65 27 75 30 140 42 91 16 277 16 393 0z
m1242 -48 c55 -10 118 -29 140 -41 44 -25 117 -113 113 -138 -2 -9 3 -24 11
-33 22 -26 22 -174 1 -161 -4 3 -6 35 -4 72 2 48 0 61 -6 46 -5 -13 -13 -23
-18 -23 -16 0 -22 13 -11 27 6 7 8 13 3 13 -16 -1 -45 -48 -33 -55 6 -4 13 -5
16 -2 9 10 30 -17 26 -34 -3 -11 -12 -14 -29 -11 -14 2 -24 0 -24 -7 0 -6 5
-11 10 -11 6 0 10 -5 10 -10 0 -6 -11 -8 -25 -4 -15 4 -25 2 -25 -5 0 -6 6
-11 13 -11 6 0 4 -5 -6 -11 -12 -7 -16 -17 -12 -30 5 -15 2 -19 -14 -19 -17 0
-21 -6 -21 -31 0 -17 -4 -28 -10 -24 -5 3 -10 26 -10 51 0 94 -33 188 -80 228
-42 35 -88 47 -204 53 -184 10 -260 -24 -292 -132 -22 -74 -30 -442 -14 -630
16 -192 43 -253 125 -285 29 -12 30 -12 8 -21 -13 -4 -23 -11 -23 -14 0 -3 15
1 33 8 19 7 46 10 67 6 22 -4 27 -7 13 -8 -13 0 -23 -7 -24 -13 0 -9 -2 -9 -5
-2 -4 9 -13 9 -37 0 -37 -13 -47 -24 -40 -43 3 -7 -1 -13 -10 -13 -8 0 -17 -7
-21 -15 -3 -9 -17 -14 -33 -14 -24 2 -25 2 -5 6 12 2 22 8 22 12 0 12 -29 47
-30 35 0 -7 -16 -19 -35 -28 -35 -17 -36 -17 -81 13 -25 17 -47 31 -50 31 -6
0 13 -23 50 -61 40 -40 24 -37 -29 6 -103 85 -125 208 -125 715 0 328 7 418
40 481 53 101 138 148 289 158 136 10 280 2 396 -21z m215 -403 c0 -8 -4 -15
-9 -15 -13 0 -22 16 -14 24 11 11 23 6 23 -9z m-30 -29 c0 -3 -4 -8 -10 -11
-5 -3 -10 -1 -10 4 0 6 5 11 10 11 6 0 10 -2 10 -4z m107 -28 c-3 -8 -6 -5 -6
6 -1 11 2 17 5 13 3 -3 4 -12 1 -19z m-176 -81 c-13 -13 -26 -3 -16 12 3 6 11
8 17 5 6 -4 6 -10 -1 -17z"/>
<path d="M110 20480 c0 -5 5 -10 11 -10 5 0 7 5 4 10 -3 6 -8 10 -11 10 -2 0
-4 -4 -4 -10z"/>
<path d="M42380 18501 c-36 -4 -79 -14 -96 -23 -77 -42 -85 -79 -84 -388 0
-289 12 -461 34 -505 8 -17 28 -43 44 -59 26 -24 41 -28 117 -35 48 -5 119 -5
159 0 39 4 76 8 83 9 6 0 25 13 41 30 50 50 63 133 61 389 -3 407 -20 507 -91
551 -28 17 -55 22 -173 34 -16 1 -59 0 -95 -3z"/>
<path d="M43552 18490 c-109 -15 -143 -53 -161 -181 -14 -90 -13 -409 1 -579
14 -171 48 -227 148 -240 19 -3 87 -5 152 -5 113 0 117 1 159 30 72 51 74 61
73 450 0 376 -7 426 -61 477 -46 44 -185 65 -311 48z"/>
<path d="M48260 18491 c-77 -8 -120 -36 -150 -96 l-25 -50 1 -295 c1 -312 12
-437 41 -488 30 -51 90 -73 213 -74 175 -2 241 25 269 109 18 52 24 326 13
558 -13 286 -32 317 -207 335 -50 5 -92 9 -95 8 -3 0 -30 -4 -60 -7z"/>
<path d="M38017 16756 c-45 -17 -40 -12 -62 -56 -13 -26 -18 -56 -17 -116 2
-139 28 -176 135 -195 63 -10 242 -8 287 4 71 18 90 52 97 165 7 113 -11 162
-70 187 -58 24 -314 32 -370 11z"/>
<path d="M38040 16139 c-131 -19 -154 -53 -155 -224 0 -110 2 -123 23 -152 36
-51 88 -62 277 -59 170 3 198 9 238 52 31 33 38 69 38 189 0 120 -20 156 -96
179 -54 17 -250 26 -325 15z"/>
<path d="M39310 16740 c-76 -7 -114 -29 -139 -79 -30 -59 -31 -77 -32 -388 -1
-549 15 -579 306 -571 170 4 199 17 232 102 20 51 23 85 29 245 7 231 -8 518
-31 584 -35 100 -139 131 -365 107z"/>
<path d="M52156 16550 c-37 -12 -74 -46 -94 -90 -15 -31 -17 -80 -17 -400 1
-348 2 -367 22 -410 11 -25 30 -53 41 -64 34 -30 124 -45 243 -41 150 5 191
26 220 110 17 49 17 572 0 703 -21 168 -57 195 -261 199 -69 1 -138 -2 -154
-7z"/>
<path d="M51195 16458 c-9 -13 -62 -84 -116 -158 -55 -74 -119 -161 -142 -193
-23 -32 -64 -87 -91 -123 -45 -59 -49 -69 -50 -122 l-1 -57 218 -3 c202 -2
217 -1 218 15 0 10 -1 113 -2 228 -1 116 -2 261 -2 323 0 61 -4 112 -8 112 -4
0 -15 -10 -24 -22z"/>
<path d="M26391 13564 c0 -11 3 -14 6 -6 3 7 2 16 -1 19 -3 4 -6 -2 -5 -13z"/>
<path d="M26390 11820 c0 -5 5 -10 11 -10 5 0 7 5 4 10 -3 6 -8 10 -11 10 -2
0 -4 -4 -4 -10z"/>
<path d="M26400 11740 c0 -5 5 -10 10 -10 6 0 10 5 10 10 0 6 -4 10 -10 10 -5
0 -10 -4 -10 -10z"/>
<path d="M34828 13159 c-15 -9 -5 -355 11 -390 19 -40 66 -57 186 -67 122 -10
227 1 282 31 38 20 49 50 63 174 10 79 9 101 -6 152 -19 71 -38 86 -115 96
-75 9 -407 12 -421 4z"/>
<path d="M36251 13739 c-83 -10 -113 -25 -142 -72 -33 -55 -39 -95 -45 -332
-8 -268 7 -488 36 -545 41 -80 101 -101 280 -97 242 7 261 45 260 536 0 248
-10 374 -35 421 -39 75 -174 109 -354 89z"/>
<path d="M53908 12953 l-48 -4 4 -140 c9 -289 15 -294 291 -294 124 0 132 1
177 27 l46 28 7 74 c4 41 6 110 4 154 -4 89 -25 130 -71 143 -31 8 -346 17
-410 12z"/>
<path d="M55217 13520 c-73 -9 -105 -32 -137 -96 l-25 -49 0 -330 c0 -359 7
-422 51 -475 43 -51 169 -70 324 -49 77 11 88 15 117 46 18 18 37 50 44 71 16
55 23 394 10 577 -12 186 -29 248 -74 275 -43 26 -215 43 -310 30z"/>
<path d="M59633 10003 c9 -2 25 -2 35 0 9 3 1 5 -18 5 -19 0 -27 -2 -17 -5z"/>
<path d="M34373 9840 c-91 -13 -120 -32 -151 -98 l-27 -57 0 -360 c0 -399 3
-423 60 -479 42 -42 83 -51 250 -51 249 0 266 36 262 560 -2 280 -4 326 -20
370 -22 59 -53 91 -105 104 -57 14 -200 20 -269 11z"/>
<path d="M33304 9773 c-6 -10 -38 -50 -70 -89 -32 -40 -88 -109 -124 -154 -36
-45 -92 -114 -125 -154 -95 -114 -129 -157 -138 -172 -4 -8 -7 -40 -5 -72 l3
-57 240 0 240 0 0 357 c0 197 -2 358 -5 358 -3 0 -10 -8 -16 -17z"/>
<path d="M57055 9753 c-11 -1 -46 -5 -78 -8 -48 -6 -66 -13 -98 -42 -21 -19
-44 -51 -51 -71 -7 -25 -12 -134 -14 -322 -4 -521 15 -562 258 -577 113 -7
211 9 246 41 13 11 33 41 45 66 20 42 21 59 20 280 -2 301 -18 500 -44 553
-27 51 -79 74 -184 79 -44 2 -89 2 -100 1z"/>
<path d="M55732 9749 c-29 -5 -62 -14 -74 -20 -32 -17 -48 -71 -48 -159 0
-163 31 -186 255 -184 86 1 162 6 178 12 43 18 67 80 67 180 0 103 -14 133
-71 156 -49 20 -225 28 -307 15z"/>
<path d="M55717 9150 c-59 -10 -94 -32 -109 -68 -14 -37 -15 -241 0 -269 24
-43 65 -62 163 -73 124 -14 295 3 334 34 36 29 53 136 38 242 -13 89 -33 117
-98 133 -50 12 -255 13 -328 1z"/>
<path d="M43375 5860 c3 -5 8 -10 11 -10 2 0 4 5 4 10 0 6 -5 10 -11 10 -5 0
-7 -4 -4 -10z"/>
<path d="M43492 5841 c4 -13 18 -16 19 -4 0 4 -5 9 -11 12 -7 2 -11 -2 -8 -8z"/>
<path d="M43385 5820 c-3 -5 1 -10 9 -10 9 0 16 5 16 10 0 6 -4 10 -9 10 -6 0
-13 -4 -16 -10z"/>
<path d="M43290 5800 c0 -5 7 -10 15 -10 8 0 15 5 15 10 0 6 -7 10 -15 10 -8
0 -15 -4 -15 -10z"/>
<path d="M43295 5771 c-8 -14 38 -25 66 -16 20 7 21 8 4 17 -12 7 -20 7 -25
-3 -7 -10 -12 -10 -23 0 -10 8 -17 8 -22 2z"/>
<path d="M43245 5740 c-3 -5 3 -10 14 -10 24 0 27 -10 9 -28 -8 -8 -8 -12 -1
-12 6 0 16 7 23 15 10 11 9 18 -3 30 -18 17 -33 19 -42 5z"/>
<path d="M43402 5738 c6 -18 28 -21 28 -4 0 9 -7 16 -16 16 -9 0 -14 -5 -12
-12z"/>
<path d="M43480 5720 c0 -5 5 -10 10 -10 6 0 10 5 10 10 0 6 -4 10 -10 10 -5
0 -10 -4 -10 -10z"/>
<path d="M43240 5680 c8 -5 20 -10 25 -10 6 0 3 5 -5 10 -8 5 -19 10 -25 10
-5 0 -3 -5 5 -10z"/>
<path d="M43065 5670 c4 -6 11 -8 16 -5 14 9 11 15 -7 15 -8 0 -12 -5 -9 -10z"/>
<path d="M43200 5665 c0 -8 5 -15 10 -15 6 0 10 7 10 15 0 8 -4 15 -10 15 -5
0 -10 -7 -10 -15z"/>
<path d="M43380 5660 c0 -5 5 -10 10 -10 6 0 10 5 10 10 0 6 -4 10 -10 10 -5
0 -10 -4 -10 -10z"/>
<path d="M43245 5640 c-3 -5 3 -10 14 -10 22 0 28 -14 11 -25 -6 -4 -17 -1
-25 5 -19 16 -19 3 -1 -16 19 -18 32 -18 40 2 14 36 -21 74 -39 44z"/>
<path d="M43164 5626 c-3 -8 0 -25 7 -38 8 -16 14 -19 17 -9 2 7 -1 17 -8 21
-8 5 -7 9 4 13 9 4 16 11 16 17 0 15 -30 12 -36 -4z"/>
<path d="M43100 5581 c0 -11 -3 -27 -6 -36 -5 -13 -2 -16 12 -13 14 3 18 11
17 33 -1 17 0 24 3 18 8 -18 25 -16 18 2 -9 22 -44 19 -44 -4z"/>
<path d="M42982 5555 c4 -25 58 -35 58 -12 0 10 -7 13 -21 10 -12 -4 -25 0
-31 8 -7 11 -8 9 -6 -6z"/>
<path d="M43167 5553 c-12 -12 -7 -22 8 -17 8 4 15 10 15 15 0 11 -14 12 -23
2z"/>
<path d="M43052 5528 c2 -6 10 -14 16 -16 7 -2 10 2 6 12 -7 18 -28 22 -22 4z"/>
<path d="M43240 5524 c0 -8 5 -12 10 -9 6 3 10 10 10 16 0 5 -4 9 -10 9 -5 0
-10 -7 -10 -16z"/>
<path d="M43124 5509 c-3 -6 -1 -16 5 -22 6 -6 11 -19 11 -28 0 -9 7 -20 16
-23 25 -9 30 2 9 18 -13 9 -16 20 -11 39 5 20 3 27 -8 27 -8 0 -18 -5 -22 -11z"/>
<path d="M43202 5500 c0 -14 2 -19 5 -12 2 6 2 18 0 25 -3 6 -5 1 -5 -13z"/>
<path d="M43031 5494 c0 -11 3 -14 6 -6 3 7 2 16 -1 19 -3 4 -6 -2 -5 -13z"/>
<path d="M43083 5473 c-15 -32 -16 -43 -4 -43 7 0 31 51 31 66 0 14 -17 -1
-27 -23z"/>
<path d="M42930 5476 c0 -9 6 -16 14 -16 8 0 16 -7 20 -15 3 -8 1 -15 -3 -15
-5 0 -9 -16 -9 -36 0 -21 3 -32 8 -25 5 10 9 9 13 -3 4 -9 1 -16 -5 -16 -9 0
-9 -3 0 -12 7 -7 8 -17 1 -30 -12 -21 0 -23 26 -4 16 12 17 16 6 30 -11 14
-11 16 2 16 9 0 23 -7 31 -16 14 -14 16 -14 16 0 0 10 7 15 19 13 11 -1 20 1
20 6 4 38 -1 58 -11 54 -7 -2 -12 -14 -10 -25 3 -17 -2 -22 -20 -22 -21 0 -24
4 -20 35 3 21 0 35 -7 35 -6 0 -11 -9 -11 -20 0 -11 -7 -20 -15 -20 -18 0 -20
30 -2 30 8 1 6 5 -4 13 -9 7 -18 21 -20 32 -5 24 -39 33 -39 11z"/>
<path d="M42791 5464 c0 -11 3 -14 6 -6 3 7 2 16 -1 19 -3 4 -6 -2 -5 -13z"/>
<path d="M43224 5450 c1 -17 6 -30 14 -30 9 0 12 10 10 27 -4 38 -25 41 -24 3z"/>
<path d="M42855 5450 c-3 -5 -1 -10 4 -10 6 0 11 5 11 10 0 6 -2 10 -4 10 -3
0 -8 -4 -11 -10z"/>
<path d="M43035 5451 c-3 -5 -1 -12 5 -16 5 -3 10 1 10 9 0 18 -6 21 -15 7z"/>
<path d="M42886 5442 c2 -3 -2 -12 -8 -21 -7 -9 -8 -13 -4 -9 5 4 15 3 23 -4
22 -18 29 1 7 21 -12 10 -19 16 -18 13z"/>
<path d="M43116 5424 c-9 -22 -8 -24 9 -24 8 0 15 6 15 14 0 22 -17 28 -24 10z"/>
<path d="M43196 5384 c-8 -22 -8 -24 6 -24 6 0 8 3 5 7 -4 3 -2 12 4 20 7 8 8
13 1 13 -5 0 -13 -7 -16 -16z"/>
<path d="M42790 5381 c0 -10 19 -25 25 -20 1 2 -3 10 -11 17 -8 7 -14 8 -14 3z"/>
<path d="M43140 5374 c0 -14 3 -14 15 -4 8 7 15 14 15 16 0 2 -7 4 -15 4 -8 0
-15 -7 -15 -16z"/>
<path d="M42887 5349 c7 -27 23 -34 23 -11 0 11 -6 22 -14 25 -10 4 -12 0 -9
-14z"/>
<path d="M42315 5350 c3 -5 8 -10 11 -10 2 0 4 5 4 10 0 6 -5 10 -11 10 -5 0
-7 -4 -4 -10z"/>
<path d="M42630 5345 c0 -19 15 -30 43 -30 15 -1 27 5 27 12 0 19 -20 26 -36
12 -13 -10 -17 -10 -25 2 -5 8 -9 10 -9 4z"/>
<path d="M42721 5334 c0 -11 3 -14 6 -6 3 7 2 16 -1 19 -3 4 -6 -2 -5 -13z"/>
<path d="M43210 5340 c0 -5 5 -10 11 -10 5 0 7 5 4 10 -3 6 -8 10 -11 10 -2 0
-4 -4 -4 -10z"/>
<path d="M42930 5329 c0 -5 5 -7 10 -4 6 3 10 8 10 11 0 2 -4 4 -10 4 -5 0
-10 -5 -10 -11z"/>
<path d="M42370 5320 c0 -5 5 -10 10 -10 6 0 10 5 10 10 0 6 -4 10 -10 10 -5
0 -10 -4 -10 -10z"/>
<path d="M43076 5323 c-9 -10 -7 -43 3 -43 11 0 21 39 11 45 -4 2 -10 2 -14
-2z"/>
<path d="M42543 5313 c-18 -7 -16 -23 2 -23 8 0 15 7 15 15 0 8 -1 15 -2 14
-2 0 -9 -3 -15 -6z"/>
<path d="M42830 5310 c0 -5 7 -10 16 -10 8 0 12 5 9 10 -3 6 -10 10 -16 10 -5
0 -9 -4 -9 -10z"/>
<path d="M42640 5280 c0 -6 7 -10 15 -10 8 0 15 2 15 4 0 2 -7 6 -15 10 -8 3
-15 1 -15 -4z"/>
<path d="M42580 5261 c0 -12 5 -21 10 -21 6 0 10 6 10 14 0 8 -4 18 -10 21 -5
3 -10 -3 -10 -14z"/>
<path d="M42983 5273 c-15 -5 -18 -33 -4 -33 5 0 11 9 14 20 3 11 4 20 4 19
-1 0 -8 -3 -14 -6z"/>
<path d="M42876 5255 c-4 -10 1 -15 16 -15 17 0 18 2 8 15 -7 8 -14 15 -15 15
-2 0 -5 -7 -9 -15z"/>
<path d="M42495 5250 c3 -5 8 -10 11 -10 2 0 4 5 4 10 0 6 -5 10 -11 10 -5 0
-7 -4 -4 -10z"/>
<path d="M42820 5250 c0 -5 5 -10 11 -10 5 0 7 5 4 10 -3 6 -8 10 -11 10 -2 0
-4 -4 -4 -10z"/>
<path d="M43020 5255 c0 -5 5 -17 10 -25 5 -8 10 -10 10 -5 0 6 -5 17 -10 25
-5 8 -10 11 -10 5z"/>
<path d="M42450 5240 c0 -5 5 -10 11 -10 5 0 7 5 4 10 -3 6 -8 10 -11 10 -2 0
-4 -4 -4 -10z"/>
<path d="M42780 5230 c0 -5 7 -10 16 -10 8 0 12 5 9 10 -3 6 -10 10 -16 10 -5
0 -9 -4 -9 -10z"/>
<path d="M42460 5200 c-9 -6 -10 -10 -3 -10 6 0 15 5 18 10 8 12 4 12 -15 0z"/>
<path d="M42290 5160 c0 -5 4 -10 9 -10 6 0 13 5 16 10 3 6 -1 10 -9 10 -9 0
-16 -4 -16 -10z"/>
<path d="M42405 5160 c-3 -5 -2 -10 4 -10 5 0 13 5 16 10 3 6 2 10 -4 10 -5 0
-13 -4 -16 -10z"/>
<path d="M42725 5139 c-4 -6 -5 -13 -2 -16 7 -7 27 6 27 18 0 12 -17 12 -25
-2z"/>
<path d="M42387 5126 c-3 -8 1 -17 9 -20 28 -11 34 -6 22 14 -15 24 -24 25
-31 6z"/>
<path d="M42335 5121 c-3 -5 -1 -12 4 -15 5 -3 11 1 15 9 6 16 -9 21 -19 6z"/>
<path d="M42170 5100 c0 -5 5 -10 10 -10 6 0 10 5 10 10 0 6 -4 10 -10 10 -5
0 -10 -4 -10 -10z"/>
<path d="M42480 5100 c0 -5 5 -10 10 -10 6 0 10 5 10 10 0 6 -4 10 -10 10 -5
0 -10 -4 -10 -10z"/>
<path d="M42694 5064 c3 -9 6 -19 6 -22 0 -9 20 21 20 31 0 4 -7 7 -16 7 -11
0 -14 -5 -10 -16z"/>
<path d="M42335 5060 c3 -5 8 -10 11 -10 2 0 4 5 4 10 0 6 -5 10 -11 10 -5 0
-7 -4 -4 -10z"/>
<path d="M42529 5063 c-1 -5 -1 -11 0 -15 0 -5 -3 -8 -9 -8 -5 0 -10 -5 -10
-12 0 -6 9 -3 20 7 11 10 20 22 20 27 0 10 -20 11 -21 1z"/>
<path d="M42130 5045 c0 -8 2 -15 4 -15 2 0 6 7 10 15 3 8 1 15 -4 15 -6 0
-10 -7 -10 -15z"/>
<path d="M42220 5045 c0 -8 4 -15 10 -15 5 0 7 7 4 15 -4 8 -8 15 -10 15 -2 0
-4 -7 -4 -15z"/>
<path d="M42290 5026 c0 -2 7 -9 15 -16 9 -7 15 -8 15 -2 0 5 -7 12 -15 16 -8
3 -15 4 -15 2z"/>
<path d="M41637 5005 c-10 -7 -14 -16 -9 -19 5 -3 15 1 22 9 17 21 9 27 -13
10z"/>
<path d="M42200 5000 c0 -5 7 -10 15 -10 8 0 15 5 15 10 0 6 -7 10 -15 10 -8
0 -15 -4 -15 -10z"/>
<path d="M42135 4989 c-4 -6 -5 -13 -2 -16 7 -7 27 6 27 18 0 12 -17 12 -25
-2z"/>
<path d="M42400 4984 c0 -8 5 -12 10 -9 6 3 10 10 10 16 0 5 -4 9 -10 9 -5 0
-10 -7 -10 -16z"/>
<path d="M42180 4970 c0 -5 5 -10 11 -10 5 0 7 5 4 10 -3 6 -8 10 -11 10 -2 0
-4 -4 -4 -10z"/>
<path d="M42350 4970 c0 -5 5 -10 10 -10 6 0 10 5 10 10 0 6 -4 10 -10 10 -5
0 -10 -4 -10 -10z"/>
<path d="M41890 4950 c0 -7 8 -19 18 -26 15 -12 15 -15 2 -24 -13 -9 -13 -11
0 -19 9 -7 17 -6 21 1 4 6 12 7 19 3 20 -12 -5 27 -34 54 -16 15 -26 19 -26
11z"/>
<path d="M42066 4945 c-9 -24 -8 -25 20 -25 19 0 25 5 22 17 -4 23 -34 28 -42
8z"/>
<path d="M42165 4920 c3 -5 13 -10 21 -10 8 0 14 5 14 10 0 6 -9 10 -21 10
-11 0 -17 -4 -14 -10z"/>
<path d="M41754 4909 c-3 -6 -2 -15 3 -20 5 -5 9 -1 9 11 0 23 -2 24 -12 9z"/>
<path d="M41810 4910 c0 -5 5 -10 11 -10 5 0 7 5 4 10 -3 6 -8 10 -11 10 -2 0
-4 -4 -4 -10z"/>
<path d="M41625 4880 c-3 -5 1 -10 10 -10 9 0 13 5 10 10 -3 6 -8 10 -10 10
-2 0 -7 -4 -10 -10z"/>
<path d="M41981 4881 c-11 -7 -9 -14 13 -36 16 -16 31 -23 39 -18 8 5 6 9 -8
11 -24 5 -37 22 -30 40 5 14 4 14 -14 3z"/>
<path d="M42080 4886 c0 -2 9 -6 20 -9 11 -3 20 -1 20 4 0 5 -9 9 -20 9 -11 0
-20 -2 -20 -4z"/>
<path d="M41790 4876 c0 -2 11 -11 25 -20 25 -17 25 -16 13 4 -11 17 -38 29
-38 16z"/>
<path d="M42050 4866 c0 -2 7 -6 15 -10 8 -3 15 -1 15 4 0 6 -7 10 -15 10 -8
0 -15 -2 -15 -4z"/>
<path d="M42233 4844 c-15 -16 -16 -24 -4 -24 8 0 24 30 19 35 -2 2 -9 -3 -15
-11z"/>
<path d="M41906 4841 c-4 -5 -2 -12 3 -15 5 -4 12 -2 15 3 4 5 2 12 -3 15 -5
4 -12 2 -15 -3z"/>
<path d="M41685 4825 c-26 -11 -28 -14 -12 -20 12 -5 24 -2 35 8 22 23 13 28
-23 12z"/>
<path d="M41757 4833 c-4 -3 -7 -11 -7 -17 0 -6 5 -5 12 2 6 6 9 14 7 17 -3 3
-9 2 -12 -2z"/>
<path d="M41852 4816 c9 -9 21 -16 27 -16 6 0 11 -9 11 -20 0 -11 5 -20 10
-20 30 0 -3 53 -40 65 -22 7 -23 6 -8 -9z"/>
<path d="M41925 4799 c-9 -27 0 -35 20 -19 19 16 19 26 1 33 -9 4 -17 -2 -21
-14z"/>
<path d="M41595 4800 c3 -5 8 -10 11 -10 2 0 4 5 4 10 0 6 -5 10 -11 10 -5 0
-7 -4 -4 -10z"/>
<path d="M41981 4791 c-8 -14 -7 -20 2 -24 7 -3 18 6 24 19 9 19 8 24 -3 24
-7 0 -18 -9 -23 -19z"/>
<path d="M41800 4790 c0 -5 5 -10 10 -10 6 0 10 5 10 10 0 6 -4 10 -10 10 -5
0 -10 -4 -10 -10z"/>
<path d="M41706 4782 c-3 -6 -1 -14 5 -17 15 -10 25 3 12 16 -7 7 -13 7 -17 1z"/>
<path d="M41745 4760 c3 -5 8 -10 11 -10 2 0 4 5 4 10 0 6 -5 10 -11 10 -5 0
-7 -4 -4 -10z"/>
<path d="M42025 4760 c3 -5 8 -10 11 -10 2 0 4 5 4 10 0 6 -5 10 -11 10 -5 0
-7 -4 -4 -10z"/>
<path d="M42240 4760 c0 -5 5 -10 10 -10 6 0 10 5 10 10 0 6 -4 10 -10 10 -5
0 -10 -4 -10 -10z"/>
<path d="M41350 4754 c0 -6 7 -19 16 -30 14 -18 14 -18 3 6 -14 31 -19 36 -19
24z"/>
<path d="M41490 4751 c0 -17 18 -21 24 -6 3 9 0 15 -9 15 -8 0 -15 -4 -15 -9z"/>
<path d="M41595 4751 c-3 -5 -1 -12 5 -16 5 -3 10 1 10 9 0 18 -6 21 -15 7z"/>
<path d="M41635 4740 c3 -5 8 -10 11 -10 2 0 4 5 4 10 0 6 -5 10 -11 10 -5 0
-7 -4 -4 -10z"/>
<path d="M41830 4730 c0 -5 5 -10 11 -10 5 0 7 5 4 10 -3 6 -8 10 -11 10 -2 0
-4 -4 -4 -10z"/>
<path d="M41680 4720 c0 -5 5 -10 11 -10 5 0 7 5 4 10 -3 6 -8 10 -11 10 -2 0
-4 -4 -4 -10z"/>
<path d="M41908 4723 c7 -3 16 -2 19 1 4 3 -2 6 -13 5 -11 0 -14 -3 -6 -6z"/>
<path d="M41400 4693 c0 -17 7 -36 15 -43 25 -20 26 -7 5 35 l-20 39 0 -31z"/>
<path d="M41460 4710 c0 -5 5 -10 10 -10 6 0 10 5 10 10 0 6 -4 10 -10 10 -5
0 -10 -4 -10 -10z"/>
<path d="M41605 4710 c3 -5 10 -10 16 -10 5 0 9 5 9 10 0 6 -7 10 -16 10 -8 0
-12 -4 -9 -10z"/>
<path d="M41990 4704 c0 -8 5 -12 10 -9 6 3 10 10 10 16 0 5 -4 9 -10 9 -5 0
-10 -7 -10 -16z"/>
<path d="M42088 4713 c7 -3 16 -2 19 1 4 3 -2 6 -13 5 -11 0 -14 -3 -6 -6z"/>
<path d="M41647 4704 c-4 -4 -7 -14 -7 -23 0 -11 3 -12 11 -4 6 6 10 16 7 23
-2 6 -7 8 -11 4z"/>
<path d="M41465 4640 c-3 -5 1 -10 9 -10 9 0 16 5 16 10 0 6 -4 10 -9 10 -6 0
-13 -4 -16 -10z"/>
<path d="M41811 4641 c-7 -5 -12 -14 -10 -20 3 -7 11 -3 21 9 18 21 13 26 -11
11z"/>
<path d="M41530 4625 c0 -8 5 -15 10 -15 6 0 10 7 10 15 0 8 -4 15 -10 15 -5
0 -10 -7 -10 -15z"/>
<path d="M41623 4633 c-18 -7 -16 -23 2 -23 8 0 15 7 15 15 0 8 -1 15 -2 14
-2 0 -9 -3 -15 -6z"/>
<path d="M41020 4620 c0 -5 5 -10 10 -10 6 0 10 5 10 10 0 6 -4 10 -10 10 -5
0 -10 -4 -10 -10z"/>
<path d="M41282 4610 c0 -14 2 -19 5 -12 2 6 2 18 0 25 -3 6 -5 1 -5 -13z"/>
<path d="M41325 4610 c3 -5 8 -10 11 -10 2 0 4 5 4 10 0 6 -5 10 -11 10 -5 0
-7 -4 -4 -10z"/>
<path d="M41431 4584 c0 -11 3 -14 6 -6 3 7 2 16 -1 19 -3 4 -6 -2 -5 -13z"/>
<path d="M41460 4590 c0 -5 5 -10 10 -10 6 0 10 5 10 10 0 6 -4 10 -10 10 -5
0 -10 -4 -10 -10z"/>
<path d="M41057 4584 c-11 -11 3 -24 18 -18 8 4 12 10 9 15 -6 11 -18 12 -27
3z"/>
<path d="M41372 4570 c0 -14 2 -19 5 -12 2 6 2 18 0 25 -3 6 -5 1 -5 -13z"/>
<path d="M41780 4580 c0 -5 4 -10 9 -10 6 0 13 5 16 10 3 6 -1 10 -9 10 -9 0
-16 -4 -16 -10z"/>
<path d="M41191 4564 c0 -11 3 -14 6 -6 3 7 2 16 -1 19 -3 4 -6 -2 -5 -13z"/>
<path d="M40975 4539 c-10 -15 3 -25 16 -12 7 7 7 13 1 17 -6 3 -14 1 -17 -5z"/>
<path d="M41107 4534 c-4 -4 -3 -12 1 -18 4 -6 12 -27 18 -46 10 -30 12 -32
19 -16 5 12 5 21 -1 23 -6 2 -9 17 -8 33 2 28 -13 40 -29 24z"/>
<path d="M41223 4505 c-8 -22 6 -33 17 -15 13 20 12 30 0 30 -6 0 -13 -7 -17
-15z"/>
<path d="M41024 4491 c0 -11 4 -17 8 -15 4 3 8 12 8 20 0 8 -4 14 -8 14 -4 0
-8 -9 -8 -19z"/>
<path d="M41290 4490 c0 -5 5 -10 11 -10 5 0 7 5 4 10 -3 6 -8 10 -11 10 -2 0
-4 -4 -4 -10z"/>
<path d="M41620 4490 c0 -5 5 -10 11 -10 5 0 7 5 4 10 -3 6 -8 10 -11 10 -2 0
-4 -4 -4 -10z"/>
<path d="M40972 4465 c1 -14 6 -25 10 -25 4 0 8 11 8 25 0 14 -4 25 -10 25 -5
0 -9 -11 -8 -25z"/>
<path d="M40790 4475 c0 -18 19 -40 26 -32 4 4 0 15 -9 24 -9 10 -17 13 -17 8z"/>
<path d="M41046 4462 c-4 -12 -12 -19 -18 -16 -6 4 -8 -1 -3 -15 5 -16 2 -21
-12 -22 -16 0 -16 -1 2 -8 25 -11 38 -4 31 16 -4 9 -1 22 5 29 6 7 9 19 7 26
-3 8 -8 4 -12 -10z"/>
<path d="M41260 4460 c0 -11 4 -20 9 -20 5 0 7 9 4 20 -3 11 -7 20 -9 20 -2 0
-4 -9 -4 -20z"/>
<path d="M40890 4460 c-13 -8 -13 -10 2 -10 9 0 25 -3 35 -7 17 -6 17 -6 1 10
-19 20 -18 20 -38 7z"/>
<path d="M41158 4430 c-3 -19 0 -30 7 -30 7 0 10 11 7 30 -2 17 -5 30 -7 30
-2 0 -5 -13 -7 -30z"/>
<path d="M40885 4410 c-11 -5 -15 -9 -8 -9 7 -1 10 -8 7 -16 -8 -19 0 -19 20
1 29 29 20 41 -19 24z"/>
<path d="M40770 4396 c0 -9 5 -16 10 -16 6 0 10 4 10 9 0 6 -4 13 -10 16 -5 3
-10 -1 -10 -9z"/>
<path d="M40945 4400 c-3 -5 1 -10 9 -10 9 0 16 5 16 10 0 6 -4 10 -9 10 -6 0
-13 -4 -16 -10z"/>
<path d="M41096 4401 c-4 -7 -5 -15 -2 -18 9 -9 19 4 14 18 -4 11 -6 11 -12 0z"/>
<path d="M40631 4384 c0 -11 3 -14 6 -6 3 7 2 16 -1 19 -3 4 -6 -2 -5 -13z"/>
<path d="M41052 4389 c2 -6 8 -10 13 -10 5 0 11 4 13 10 2 6 -4 11 -13 11 -9
0 -15 -5 -13 -11z"/>
<path d="M40696 4381 c-3 -5 1 -11 9 -15 9 -3 15 0 15 9 0 16 -16 20 -24 6z"/>
<path d="M40820 4364 c0 -8 5 -12 10 -9 6 4 8 11 5 16 -9 14 -15 11 -15 -7z"/>
<path d="M40885 4340 c3 -5 8 -10 11 -10 2 0 4 5 4 10 0 6 -5 10 -11 10 -5 0
-7 -4 -4 -10z"/>
<path d="M40680 4330 c0 -5 5 -10 10 -10 6 0 10 5 10 10 0 6 -4 10 -10 10 -5
0 -10 -4 -10 -10z"/>
<path d="M40970 4331 c0 -7 -5 -9 -12 -5 -7 5 -8 3 -3 -5 5 -9 10 -10 18 -2 6
6 8 14 4 18 -4 3 -7 1 -7 -6z"/>
<path d="M41155 4330 c-3 -5 -1 -10 4 -10 6 0 11 5 11 10 0 6 -2 10 -4 10 -3
0 -8 -4 -11 -10z"/>
<path d="M40752 4304 c11 -23 13 -24 19 -7 3 10 1 21 -5 25 -21 14 -26 8 -14
-18z"/>
<path d="M41056 4304 c-17 -12 -17 -14 -4 -14 9 0 20 5 23 11 11 17 2 18 -19
3z"/>
<path d="M40412 4290 c0 -14 2 -19 5 -12 2 6 2 18 0 25 -3 6 -5 1 -5 -13z"/>
<path d="M40567 4303 c-12 -11 -8 -23 8 -23 8 0 15 7 15 15 0 16 -12 20 -23 8z"/>
<path d="M40631 4284 c0 -11 3 -14 6 -6 3 7 2 16 -1 19 -3 4 -6 -2 -5 -13z"/>
<path d="M40970 4250 c-18 -12 -2 -12 25 0 13 6 15 9 5 9 -8 0 -22 -4 -30 -9z"/>
<path d="M40550 4219 c0 -11 4 -18 10 -14 5 3 7 12 3 20 -7 21 -13 19 -13 -6z"/>
<path d="M40776 4233 c-12 -12 -6 -33 9 -33 8 0 15 6 15 14 0 17 -14 28 -24
19z"/>
<path d="M41041 4214 c0 -11 3 -14 6 -6 3 7 2 16 -1 19 -3 4 -6 -2 -5 -13z"/>
<path d="M40830 4210 c0 -5 4 -10 9 -10 6 0 13 5 16 10 3 6 -1 10 -9 10 -9 0
-16 -4 -16 -10z"/>
<path d="M41140 4180 c0 -5 5 -10 11 -10 5 0 7 5 4 10 -3 6 -8 10 -11 10 -2 0
-4 -4 -4 -10z"/>
<path d="M40231 4064 c0 -11 3 -14 6 -6 3 7 2 16 -1 19 -3 4 -6 -2 -5 -13z"/>
<path d="M40230 3939 c0 -5 5 -7 10 -4 6 3 10 8 10 11 0 2 -4 4 -10 4 -5 0
-10 -5 -10 -11z"/>
<path d="M39917 3789 c4 -13 8 -18 11 -10 2 7 -1 18 -6 23 -8 8 -9 4 -5 -13z"/>
<path d="M40060 3650 c0 -5 5 -10 10 -10 6 0 10 5 10 10 0 6 -4 10 -10 10 -5
0 -10 -4 -10 -10z"/>
<path d="M39830 3565 c0 -8 4 -15 10 -15 5 0 7 7 4 15 -4 8 -8 15 -10 15 -2 0
-4 -7 -4 -15z"/>
<path d="M39910 3550 c0 -5 5 -10 10 -10 6 0 10 5 10 10 0 6 -4 10 -10 10 -5
0 -10 -4 -10 -10z"/>
<path d="M39736 3541 c-4 -7 -5 -15 -2 -18 9 -9 19 4 14 18 -4 11 -6 11 -12 0z"/>
<path d="M39108 3523 c6 -2 18 -2 25 0 6 3 1 5 -13 5 -14 0 -19 -2 -12 -5z"/>
<path d="M39277 3508 c5 -19 3 -21 -8 -10 -16 14 -49 16 -49 2 0 -5 9 -10 19
-10 11 0 21 -5 23 -12 2 -6 10 -8 16 -4 14 8 16 42 3 50 -5 4 -7 -4 -4 -16z"/>
<path d="M39940 3519 c0 -5 5 -7 10 -4 6 3 10 8 10 11 0 2 -4 4 -10 4 -5 0
-10 -5 -10 -11z"/>
<path d="M39405 3470 c3 -5 10 -10 16 -10 5 0 9 5 9 10 0 6 -7 10 -16 10 -8 0
-12 -4 -9 -10z"/>
<path d="M39732 3472 c-20 -2 -32 -8 -29 -15 5 -14 47 -11 61 3 13 13 6 16
-32 12z"/>
<path d="M39433 3426 c-1 -11 1 -15 4 -8 7 17 23 15 23 -4 0 -9 7 -14 16 -12
24 5 18 20 -13 33 -27 11 -29 11 -30 -9z"/>
<path d="M39585 3420 c-3 -5 -1 -10 4 -10 6 0 11 5 11 10 0 6 -2 10 -4 10 -3
0 -8 -4 -11 -10z"/>
<path d="M39665 3410 c3 -5 8 -10 11 -10 2 0 4 5 4 10 0 6 -5 10 -11 10 -5 0
-7 -4 -4 -10z"/>
<path d="M39640 3379 c0 -5 5 -7 10 -4 6 3 10 8 10 11 0 2 -4 4 -10 4 -5 0
-10 -5 -10 -11z"/>
<path d="M39411 3344 c0 -11 3 -14 6 -6 3 7 2 16 -1 19 -3 4 -6 -2 -5 -13z"/>
<path d="M39533 3344 c-15 -16 -16 -24 -4 -24 8 0 24 30 19 35 -2 2 -9 -3 -15
-11z"/>
<path d="M33871 5168 c0 -9 -4 -25 -7 -35 -5 -14 -4 -15 5 -7 7 7 11 22 8 35
-2 13 -5 16 -6 7z"/>
<path d="M34036 5141 c-4 -7 -5 -15 -2 -18 9 -9 19 4 14 18 -4 11 -6 11 -12 0z"/>
<path d="M33986 5075 c9 -14 17 -25 18 -25 0 0 2 11 2 25 2 18 -3 25 -17 25
-18 0 -19 -1 -3 -25z"/>
<path d="M34800 4699 c0 -5 5 -7 10 -4 6 3 10 8 10 11 0 2 -4 4 -10 4 -5 0
-10 -5 -10 -11z"/>
<path d="M34680 4685 c0 -12 -5 -26 -12 -33 -9 -9 -9 -12 0 -12 7 0 12 5 12
11 0 5 5 7 10 4 13 -8 13 15 0 35 -8 12 -10 11 -10 -5z"/>
<path d="M33396 5554 c-8 -22 1 -31 16 -16 9 9 9 15 1 23 -7 7 -12 5 -17 -7z"/>
<path d="M33430 5511 c0 -6 5 -13 10 -16 6 -3 10 1 10 9 0 9 -4 16 -10 16 -5
0 -10 -4 -10 -9z"/>
<path d="M33530 5430 c0 -5 5 -10 11 -10 5 0 7 5 4 10 -3 6 -8 10 -11 10 -2 0
-4 -4 -4 -10z"/>
<path d="M33501 5374 c0 -11 3 -14 6 -6 3 7 2 16 -1 19 -3 4 -6 -2 -5 -13z"/>
<path d="M56105 5359 c-93 -13 -128 -32 -152 -80 -32 -64 -41 -166 -38 -429 4
-295 15 -388 51 -436 46 -59 80 -69 244 -69 170 0 192 8 226 75 33 65 36 102
35 424 -1 377 -12 442 -84 486 -45 28 -189 42 -282 29z"/>
<path d="M57330 5353 c-19 -2 -56 -11 -82 -19 -98 -32 -117 -109 -113 -464 4
-334 21 -443 80 -500 41 -40 115 -60 222 -60 155 0 228 34 253 118 15 50 25
253 24 492 -2 367 -35 420 -269 433 -44 3 -96 3 -115 0z"/>
<path d="M55033 53 c9 -2 23 -2 30 0 6 3 -1 5 -18 5 -16 0 -22 -2 -12 -5z"/>
<path d="M6 20184 c-8 -21 -8 -99 0 -91 6 6 13 107 8 107 -1 0 -5 -7 -8 -16z"/>
</g>
</svg>
