<?xml version="1.0" standalone="no"?>
<!DOCTYPE svg PUBLIC "-//W3C//DTD SVG 20010904//EN"
 "http://www.w3.org/TR/2001/REC-SVG-20010904/DTD/svg10.dtd">
<svg version="1.0" xmlns="http://www.w3.org/2000/svg"
 width="1920.000000pt" height="1080.000000pt" viewBox="0 0 1920.000000 1080.000000"
 preserveAspectRatio="xMidYMid meet">

<g transform="translate(0.000000,1080.000000) scale(0.100000,-0.100000)"
fill="#000000" stroke="none">
<path d="M0 9135 c0 -1141 3 -1665 10 -1665 7 0 7 -6 1 -18 -7 -13 -4 -23 14
-40 12 -12 28 -22 34 -22 15 0 14 -17 -2 -23 -6 -3 -3 -6 8 -6 18 -1 18 -3 -5
-21 l-25 -20 80 0 c71 -1 78 -2 61 -15 -14 -11 -17 -22 -13 -47 3 -18 3 -27 0
-20 -6 14 -33 16 -33 2 0 -5 -1 -13 -2 -17 -2 -4 11 -8 27 -8 45 -1 105 -16
105 -26 0 -5 -7 -9 -15 -9 -12 0 -13 -4 -5 -19 5 -11 10 -22 10 -25 0 -12 -53
16 -75 40 -14 15 -25 23 -25 17 0 -5 17 -28 38 -50 20 -23 36 -48 34 -57 -2
-9 1 -16 7 -16 6 0 11 -7 11 -15 0 -8 -5 -15 -12 -15 -6 0 -4 -8 6 -19 11 -12
14 -21 7 -26 -6 -3 -11 -11 -11 -16 0 -6 4 -8 9 -4 5 3 12 1 16 -5 10 -16 30
-12 57 13 21 19 34 23 89 21 90 -3 91 -3 84 -14 -3 -6 -18 -7 -32 -4 -22 6
-25 4 -20 -10 4 -10 7 -19 7 -20 0 -2 11 -1 25 2 15 2 25 0 25 -7 0 -6 9 -11
20 -11 13 0 20 -7 20 -20 0 -11 7 -20 15 -20 8 0 15 -7 15 -16 0 -10 6 -14 15
-10 8 3 15 2 15 -3 0 -9 39 -23 70 -26 8 -1 21 -3 28 -4 20 -2 3 -21 -19 -21
-11 0 -18 -4 -15 -9 4 -5 0 -12 -6 -14 -9 -4 -8 -6 2 -6 17 -1 42 -36 33 -45
-4 -3 -12 -6 -20 -6 -12 0 -53 -34 -53 -45 0 -3 7 -5 15 -5 8 0 15 -4 15 -10
0 -5 -12 -10 -26 -10 -20 0 -25 -4 -20 -16 4 -10 -3 -23 -16 -34 -20 -15 -21
-21 -10 -44 11 -24 10 -26 -14 -26 -13 0 -27 -7 -30 -15 -3 -8 -14 -17 -25
-20 -10 -4 -19 -12 -19 -19 0 -6 -16 -18 -36 -25 -19 -7 -38 -19 -41 -27 -3
-8 -23 -17 -44 -20 -21 -4 -39 -10 -39 -15 0 -5 -11 -9 -24 -9 -14 0 -28 -4
-31 -10 -3 -5 -16 -10 -28 -10 -17 0 -19 -2 -8 -9 11 -7 4 -12 -25 -20 -21 -6
-45 -11 -51 -11 -7 0 -13 -7 -13 -15 0 -19 -37 -38 -66 -32 -14 2 -25 -1 -29
-11 -3 -8 -13 -12 -25 -9 -20 5 -20 -1 -20 -638 l0 -644 93 5 c92 5 130 9 327
42 119 19 311 20 510 2 99 -9 141 -8 200 2 45 8 95 10 125 6 28 -4 394 -9 815
-12 623 -3 798 -1 945 11 99 8 304 16 456 16 232 2 279 0 294 -13 15 -12 17
-12 10 -1 -5 9 -4 12 3 7 6 -4 51 13 99 38 116 58 245 103 383 135 19 5 125
32 235 60 197 51 483 105 514 98 9 -2 -11 -8 -44 -15 -33 -6 -94 -21 -135 -32
-41 -11 -141 -32 -222 -45 -81 -14 -160 -30 -175 -37 -16 -6 -33 -12 -39 -13
-40 -9 -56 -18 -44 -25 7 -4 -3 -10 -27 -15 -67 -12 -340 -93 -410 -121 -37
-15 -74 -27 -80 -27 -7 0 -13 -4 -13 -8 0 -4 -34 -23 -75 -42 -41 -20 -96 -50
-121 -68 l-47 -32 49 -20 c41 -16 56 -17 94 -9 79 19 103 22 183 24 42 1 77 4
77 7 0 8 103 5 128 -3 11 -4 23 -2 27 4 3 5 13 10 21 10 8 0 13 -4 9 -9 -3 -6
22 -8 62 -5 67 4 67 4 36 -11 -18 -8 -33 -20 -33 -25 0 -6 -5 -10 -11 -10 -5
0 -7 5 -4 10 4 6 -5 10 -19 10 -14 0 -26 -4 -26 -9 0 -6 -12 -6 -32 0 -45 12
-55 11 -62 -6 -5 -13 10 -15 99 -15 78 0 104 3 103 12 -2 7 8 14 22 16 14 2
32 6 40 9 8 4 17 7 20 8 3 0 21 9 40 19 69 36 13 -4 -70 -50 l-85 -47 -150 -8
c-82 -4 -212 -13 -287 -20 -75 -6 -150 -10 -167 -7 -16 2 -28 1 -25 -3 2 -4 0
-10 -6 -14 -5 -3 -10 -17 -10 -31 l0 -25 275 7 c186 5 275 4 275 -3 0 -6 -20
-29 -45 -52 -35 -32 -51 -40 -67 -35 -12 4 -18 2 -14 -4 7 -12 -305 -28 -351
-18 -17 4 -39 18 -49 31 -16 21 -20 22 -37 10 -15 -10 -25 -11 -39 -4 -27 14
-32 6 -32 -49 1 -26 -1 -41 -3 -34 -3 6 -13 12 -22 12 -13 0 -18 -8 -19 -32 0
-17 -8 -38 -17 -47 -15 -15 -16 -14 -13 4 2 11 7 23 13 27 6 5 6 11 -2 19 -9
9 -16 9 -28 -1 -12 -10 -15 -10 -15 5 0 28 -24 11 -34 -25 -7 -23 -7 -35 1
-37 6 -2 9 -13 6 -23 -4 -14 0 -20 11 -20 15 0 20 -11 17 -37 -3 -20 19 -54
30 -48 5 4 9 -1 9 -9 0 -9 -3 -16 -7 -16 -9 0 -33 -49 -33 -67 0 -7 -4 -13
-10 -13 -5 0 -10 4 -10 9 0 5 -7 11 -15 15 -11 4 -15 -1 -14 -17 0 -12 3 -16
6 -10 6 16 49 -11 64 -40 9 -15 7 -25 -10 -48 -26 -35 -26 -39 -2 -39 34 0 21
-49 -26 -99 -45 -47 -54 -64 -28 -55 8 4 15 1 15 -5 0 -11 -13 -15 -36 -12 -6
1 -11 -12 -12 -29 -1 -49 -12 -72 -31 -67 -9 2 -23 -3 -31 -11 -13 -14 -12
-15 3 -9 11 4 16 3 12 -3 -12 -19 -63 -11 -70 10 -4 12 -15 20 -29 20 -29 0
-39 10 -25 27 14 16 -7 18 -31 3 -9 -6 -17 -5 -22 3 -5 8 -8 6 -8 -5 0 -10 -5
-18 -12 -18 -6 0 -8 3 -5 7 4 3 -3 21 -14 40 l-21 34 21 6 c11 3 18 10 15 15
-3 5 3 12 15 15 20 5 20 7 -11 47 -18 22 -33 43 -35 46 -2 2 -19 3 -37 2 -20
-2 -38 4 -46 13 -11 13 -8 15 15 15 43 0 24 9 -28 14 -26 3 -47 1 -47 -5 0 -5
-7 -9 -15 -9 -8 0 -15 5 -15 10 0 13 21 22 55 24 14 0 25 4 25 9 0 8 -14 10
-49 7 -24 -2 -41 14 -41 38 0 6 7 12 15 12 8 0 15 5 15 10 0 6 -4 10 -10 10
-5 0 -10 9 -10 20 0 11 6 20 13 20 8 0 7 4 -3 10 -11 7 -20 4 -32 -11 l-18
-21 0 26 c0 27 -15 35 -23 14 -4 -10 -8 -10 -16 1 -5 9 -27 15 -50 15 -23 1
-41 4 -41 9 0 4 4 7 9 7 5 0 7 9 4 20 -3 11 -13 20 -23 20 -10 0 -20 6 -23 13
-3 9 -8 9 -21 -2 -16 -14 -17 -12 -11 21 6 30 4 38 -13 47 -12 6 -33 11 -49
12 -25 0 -26 1 -8 9 14 7 10 8 -16 4 -22 -3 -39 -1 -43 5 -4 6 -1 11 6 12 7 0
2 4 -10 10 -13 5 -28 7 -32 4 -5 -3 -14 4 -21 16 -9 18 -9 25 5 34 8 7 12 15
8 19 -3 4 -7 21 -8 37 -1 23 3 29 20 30 15 1 12 3 -9 8 -16 4 -31 3 -33 -1 -6
-13 -42 -9 -39 4 3 15 51 38 81 38 27 0 68 28 60 41 -3 5 -13 7 -23 4 -9 -3
-64 -5 -121 -5 -163 0 -174 0 -184 -10 -5 -5 7 -11 28 -15 20 -4 36 -12 36
-18 0 -19 -31 -46 -46 -40 -8 3 -21 -3 -28 -13 -13 -17 -15 -17 -39 -1 -17 11
-36 15 -56 11 -45 -9 -38 -28 8 -21 44 5 75 -7 53 -22 -11 -7 -11 -9 2 -14 37
-15 10 -22 -82 -23 -53 0 -85 1 -69 4 52 7 27 23 -33 20 -33 -2 -60 -6 -60
-10 0 -4 -7 -5 -15 -2 -8 4 -15 1 -15 -5 0 -6 -11 -11 -25 -11 -15 0 -40 -8
-58 -17 l-32 -17 55 -11 c40 -7 56 -15 58 -27 2 -12 -4 -18 -16 -18 -11 0 -25
-7 -32 -15 -15 -18 -87 -16 -95 3 -2 6 -15 12 -29 12 -15 0 -27 7 -31 19 -5
15 -19 20 -78 25 -83 6 -182 11 -280 14 -60 2 -70 5 -74 22 -6 23 -19 25 -61
7 -17 -7 -48 -11 -70 -9 -34 3 -39 7 -34 24 5 20 2 21 -49 15 -30 -4 -60 -3
-68 2 -8 5 -27 5 -45 -1 -61 -19 -107 -20 -127 -2 -17 16 -19 16 -19 1 0 -12
-9 -17 -29 -17 -16 0 -37 -3 -46 -6 -12 -5 -16 -2 -13 12 2 15 -2 18 -21 16
-13 -1 -29 2 -36 8 -9 8 -14 6 -18 -4 -5 -12 -21 -14 -76 -10 -55 3 -71 1 -71
-9 0 -10 -10 -12 -37 -8 -21 4 -59 4 -85 1 -36 -5 -48 -3 -48 7 0 8 -10 11
-28 9 -15 -2 -19 -1 -9 1 44 11 3 30 -53 25 -24 -2 -61 21 -56 35 4 9 -5 13
-30 13 -21 0 -33 -4 -29 -10 10 -17 -18 -11 -50 10 -16 11 -36 20 -42 20 -10
0 -13 -474 -13 -2335 l0 -2335 9600 0 9600 0 0 5400 0 5400 -9600 0 -9600 0 0
-1665z m436 -238 c4 -4 4 -10 0 -14 -9 -10 -173 -8 -216 2 -34 8 -34 9 -10 16
30 10 216 6 226 -4z m12101 -2753 c-3 -3 -12 -4 -19 -1 -8 3 -5 6 6 6 11 1 17
-2 13 -5z m453 -160 c19 -7 46 -13 60 -14 14 0 32 -5 40 -10 11 -7 -1 -10 -42
-10 -31 0 -60 5 -64 11 -3 6 -20 20 -38 31 -17 11 -22 17 -11 13 11 -4 36 -14
55 -21z m-4820 -163 c-118 -60 -231 -111 -250 -115 -23 -5 7 15 85 56 122 63
352 167 370 167 6 0 -87 -49 -205 -108z m4237 -157 c-3 -3 -12 -4 -19 -1 -8 3
-5 6 6 6 11 1 17 -2 13 -5z m-5647 -88 c0 -2 -7 -6 -15 -10 -8 -3 -15 -1 -15
4 0 6 7 10 15 10 8 0 15 -2 15 -4z m914 -26 c-15 -14 -177 -100 -181 -96 -2 2
38 31 89 64 51 33 95 56 97 50 2 -5 -1 -13 -5 -18z m-966 13 c-10 -2 -28 -2
-40 0 -13 2 -5 4 17 4 22 1 32 -1 23 -4z m-100 -10 c-21 -2 -57 -2 -80 0 -24
2 -7 4 37 4 44 0 63 -2 43 -4z m-203 -13 c-33 -4 -98 -8 -145 -7 -83 0 -84 1
-25 7 33 4 98 7 145 7 84 0 84 0 25 -7z m1782 -5 c0 -7 -11 -10 -26 -8 -23 3
-23 2 -6 -6 19 -8 19 -9 -5 -15 -31 -8 -90 -4 -90 7 0 4 -44 8 -97 9 l-98 2
94 3 c56 2 106 -1 122 -8 36 -14 60 -2 33 18 -17 13 -15 14 27 12 26 -2 46 -7
46 -14z m-2080 -11 c-3 -3 -12 -4 -19 -1 -8 3 -5 6 6 6 11 1 17 -2 13 -5z
m-94 -11 c-7 -2 -19 -2 -25 0 -7 3 -2 5 12 5 14 0 19 -2 13 -5z m1487 -11
c-13 -9 -47 -34 -74 -54 -47 -35 -55 -38 -118 -38 -38 0 -68 2 -68 4 0 2 40
14 88 26 49 12 111 34 138 50 54 32 73 38 34 12z m-1597 1 c-7 -2 -19 -2 -25
0 -7 3 -2 5 12 5 14 0 19 -2 13 -5z m-90 -10 c-7 -2 -21 -2 -30 0 -10 3 -4 5
12 5 17 0 24 -2 18 -5z m-90 -10 c-7 -2 -21 -2 -30 0 -10 3 -4 5 12 5 17 0 24
-2 18 -5z m-90 -10 c-7 -2 -21 -2 -30 0 -10 3 -4 5 12 5 17 0 24 -2 18 -5z
m-80 -10 c-7 -2 -21 -2 -30 0 -10 3 -4 5 12 5 17 0 24 -2 18 -5z m7175 0 c-15
-2 -42 -2 -60 0 -18 2 -6 4 27 4 33 0 48 -2 33 -4z m-7261 -9 c-3 -3 -12 -4
-19 -1 -8 3 -5 6 6 6 11 1 17 -2 13 -5z m3063 -10 c-232 -15 -316 -17 -306 -7
9 9 212 20 381 20 113 0 108 -1 -75 -13z m3938 9 c-26 -2 -71 -2 -100 0 -29 2
-8 3 47 3 55 0 79 -1 53 -3z m1355 0 c-13 -2 -33 -2 -45 0 -13 2 -3 4 22 4 25
0 35 -2 23 -4z m-8420 -10 c-7 -2 -21 -2 -30 0 -10 3 -4 5 12 5 17 0 24 -2 18
-5z m6800 0 c-29 -2 -77 -2 -105 0 -29 2 -6 3 52 3 58 0 81 -1 53 -3z m1380 0
c-34 -2 -93 -2 -130 0 -37 2 -9 3 62 3 72 0 102 -1 68 -3z m-8250 -10 c-7 -2
-21 -2 -30 0 -10 3 -4 5 12 5 17 0 24 -2 18 -5z m810 0 c-7 -2 -19 -2 -25 0
-7 3 -2 5 12 5 14 0 19 -2 13 -5z m5785 0 c-27 -2 -69 -2 -95 0 -27 2 -5 3 47
3 52 0 74 -1 48 -3z m1365 0 c-23 -2 -64 -2 -90 0 -26 2 -7 3 42 3 50 0 71 -1
48 -3z m-8040 -10 c-7 -2 -19 -2 -25 0 -7 3 -2 5 12 5 14 0 19 -2 13 -5z m775
0 c-16 -2 -40 -2 -55 0 -16 2 -3 4 27 4 30 0 43 -2 28 -4z m1496 -8 c18 -14
14 -15 -50 -15 -63 1 -67 2 -50 15 25 19 75 19 100 0z m4174 8 c-21 -2 -57 -2
-80 0 -24 2 -7 4 37 4 44 0 63 -2 43 -4z m1250 0 c-21 -2 -57 -2 -80 0 -24 2
-7 4 37 4 44 0 63 -2 43 -4z m125 0 c-13 -2 -33 -2 -45 0 -13 2 -3 4 22 4 25
0 35 -2 23 -4z m-7880 -10 c-7 -2 -19 -2 -25 0 -7 3 -2 5 12 5 14 0 19 -2 13
-5z m6225 0 c-10 -2 -28 -2 -40 0 -13 2 -5 4 17 4 22 1 32 -1 23 -4z m1355 0
c-23 -2 -64 -2 -90 0 -26 2 -7 3 42 3 50 0 71 -1 48 -3z m-7630 -10 c-7 -2
-21 -2 -30 0 -10 3 -4 5 12 5 17 0 24 -2 18 -5z m2055 0 c-21 -2 -55 -2 -75 0
-21 2 -4 4 37 4 41 0 58 -2 38 -4z m5365 0 c-13 -2 -33 -2 -45 0 -13 2 -3 4
22 4 25 0 35 -2 23 -4z m-7490 -10 c-7 -2 -21 -2 -30 0 -10 3 -4 5 12 5 17 0
24 -2 18 -5z m545 0 c-10 -2 -26 -2 -35 0 -10 3 -2 5 17 5 19 0 27 -2 18 -5z
m5355 0 c-7 -2 -21 -2 -30 0 -10 3 -4 5 12 5 17 0 24 -2 18 -5z m4286 -9 c2
-2 -100 -4 -227 -4 -138 0 -233 4 -237 10 -5 9 454 3 464 -6z m-9751 -1 c-10
-2 -26 -2 -35 0 -10 3 -2 5 17 5 19 0 27 -2 18 -5z m5280 0 c-15 -2 -42 -2
-60 0 -18 2 -6 4 27 4 33 0 48 -2 33 -4z m-5381 -9 c-3 -3 -12 -4 -19 -1 -8 3
-5 6 6 6 11 1 17 -2 13 -5z m5191 -1 c-15 -2 -42 -2 -60 0 -18 2 -6 4 27 4 33
0 48 -2 33 -4z m1957 -11 c-12 -12 -33 -10 -28 3 2 8 11 11 19 8 8 -3 12 -8 9
-11z m-7252 1 c-7 -2 -19 -2 -25 0 -7 3 -2 5 12 5 14 0 19 -2 13 -5z m5105 0
c-15 -2 -42 -2 -60 0 -18 2 -6 4 27 4 33 0 48 -2 33 -4z m-5195 -10 c-7 -2
-19 -2 -25 0 -7 3 -2 5 12 5 14 0 19 -2 13 -5z m4950 0 c-13 -2 -35 -2 -50 0
-16 2 -5 4 22 4 28 0 40 -2 28 -4z m-5036 -9 c-3 -3 -12 -4 -19 -1 -8 3 -5 6
6 6 11 1 17 -2 13 -5z m-74 -11 c-7 -2 -21 -2 -30 0 -10 3 -4 5 12 5 17 0 24
-2 18 -5z m7555 0 c-15 -2 -42 -2 -60 0 -18 2 -6 4 27 4 33 0 48 -2 33 -4z
m-7635 -10 c-7 -2 -19 -2 -25 0 -7 3 -2 5 12 5 14 0 19 -2 13 -5z m-70 -10
c-7 -2 -19 -2 -25 0 -7 3 -2 5 12 5 14 0 19 -2 13 -5z m7360 0 c-13 -2 -33 -2
-45 0 -13 2 -3 4 22 4 25 0 35 -2 23 -4z m-7430 -10 c-7 -2 -19 -2 -25 0 -7 3
-2 5 12 5 14 0 19 -2 13 -5z m-60 -10 c-7 -2 -21 -2 -30 0 -10 3 -4 5 12 5 17
0 24 -2 18 -5z m-60 -10 c-7 -2 -19 -2 -25 0 -7 3 -2 5 12 5 14 0 19 -2 13 -5z
m-60 -10 c-7 -2 -19 -2 -25 0 -7 3 -2 5 12 5 14 0 19 -2 13 -5z m-56 -9 c-3
-3 -12 -4 -19 -1 -8 3 -5 6 6 6 11 1 17 -2 13 -5z m-150 -30 c-3 -3 -12 -4
-19 -1 -8 3 -5 6 6 6 11 1 17 -2 13 -5z m5638 -32 l-28 -27 24 31 c13 17 26
30 28 27 3 -2 -8 -16 -24 -31z m-5688 22 c-3 -3 -12 -4 -19 -1 -8 3 -5 6 6 6
11 1 17 -2 13 -5z m5366 -11 c-13 -2 -35 -2 -50 0 -16 2 -5 4 22 4 28 0 40 -2
28 -4z m-146 -9 c-3 -3 -12 -4 -19 -1 -8 3 -5 6 6 6 11 1 17 -2 13 -5z m-2200
-10 c-3 -3 -12 -4 -19 -1 -8 3 -5 6 6 6 11 1 17 -2 13 -5z m-204 -11 c-7 -2
-21 -2 -30 0 -10 3 -4 5 12 5 17 0 24 -2 18 -5z m70 0 c-7 -2 -21 -2 -30 0
-10 3 -4 5 12 5 17 0 24 -2 18 -5z m-185 -10 c-16 -2 -40 -2 -55 0 -16 2 -3 4
27 4 30 0 43 -2 28 -4z m-150 -10 c-10 -2 -26 -2 -35 0 -10 3 -2 5 17 5 19 0
27 -2 18 -5z m-580 -40 c-10 -2 -26 -2 -35 0 -10 3 -2 5 17 5 19 0 27 -2 18
-5z m-130 -10 c-10 -2 -28 -2 -40 0 -13 2 -5 4 17 4 22 1 32 -1 23 -4z m-130
-10 c-10 -2 -28 -2 -40 0 -13 2 -5 4 17 4 22 1 32 -1 23 -4z m-120 -10 c-10
-2 -26 -2 -35 0 -10 3 -2 5 17 5 19 0 27 -2 18 -5z m-88 -13 c-14 -4 -18 -9
-10 -9 23 -2 -23 -37 -73 -54 -145 -52 -144 -52 -337 -49 -204 4 -311 -6 -463
-43 -55 -14 -103 -23 -105 -20 -3 2 4 7 14 10 10 4 27 11 36 15 9 5 31 12 47
15 17 3 59 12 93 20 35 8 83 16 108 19 263 32 575 78 579 85 7 10 48 18 101
19 31 0 32 -1 10 -8z m-3460 -385 c-7 -8 -18 -15 -24 -15 -6 0 -2 7 8 15 25
19 32 19 16 0z m-70 -15 c0 -5 -7 -10 -16 -10 -8 0 -12 5 -9 10 3 6 10 10 16
10 5 0 9 -4 9 -10z m-100 -80 c0 -5 -4 -10 -10 -10 -5 0 -10 5 -10 10 0 6 5
10 10 10 6 0 10 -4 10 -10z m3110 -20 c11 -4 -67 -29 -92 -29 -15 -1 -30 -5
-33 -11 -3 -6 -48 -10 -103 -9 -92 0 -95 1 -62 14 19 7 46 14 60 14 20 1 22 3
10 12 -12 8 -11 9 5 5 11 -3 56 -2 100 3 71 6 97 6 115 1z m7520 5 c0 -2 -10
-9 -22 -15 -22 -11 -22 -10 -4 4 21 17 26 19 26 11z m-7417 -12 c-7 -2 -19 -2
-25 0 -7 3 -2 5 12 5 14 0 19 -2 13 -5z m-3233 -12 c0 -11 -31 -24 -39 -16 -3
3 1 10 9 15 19 12 30 12 30 1z m3287 3 c-3 -3 -12 -4 -19 -1 -8 3 -5 6 6 6 11
1 17 -2 13 -5z m-5012 -14 c3 -5 -1 -10 -10 -10 -9 0 -13 5 -10 10 3 6 8 10
10 10 2 0 7 -4 10 -10z m1723 -37 c-10 -2 -26 -2 -35 0 -10 3 -2 5 17 5 19 0
27 -2 18 -5z m2733 -61 c-46 -15 -228 -182 -214 -196 3 -3 -5 -2 -16 1 -12 3
-23 9 -26 13 -10 16 95 128 169 178 79 54 80 54 88 31 6 -14 5 -25 -1 -27z
m-1496 28 c3 -5 1 -10 -4 -10 -6 0 -11 5 -11 10 0 6 2 10 4 10 3 0 8 -4 11
-10z m-1565 -50 c0 -5 -2 -10 -4 -10 -3 0 -8 5 -11 10 -3 6 -1 10 4 10 6 0 11
-4 11 -10z m1674 -42 c-3 -5 -21 -8 -39 -6 -19 1 -31 6 -28 11 3 4 7 6 10 3 3
-3 15 1 26 9 16 11 23 12 28 3 4 -7 5 -16 3 -20z m9736 -62 l-23 -21 19 33
c10 18 20 28 23 21 2 -6 -7 -21 -19 -33z m283 -49 c-62 -31 -62 -31 -130 -18
-103 20 -101 26 10 28 56 1 116 7 132 12 55 17 51 10 -12 -22z m-8408 -60
c-11 23 13 22 35 -2 33 -35 49 -31 67 15 18 45 37 54 27 13 -7 -32 -27 -50
-66 -65 -16 -6 -25 -15 -21 -21 3 -6 1 -7 -6 -3 -6 4 -9 12 -6 17 4 5 0 9 -8
9 -8 0 -32 21 -54 48 -58 69 -63 85 -9 27 26 -27 45 -45 41 -38z m7999 -20 c7
-6 6 -7 -4 -4 -8 2 -16 12 -17 23 -2 13 -1 15 4 4 3 -8 11 -19 17 -23z m179
26 c-7 -2 -19 -2 -25 0 -7 3 -2 5 12 5 14 0 19 -2 13 -5z m-7753 -7 c0 -2 -8
-10 -17 -17 -16 -13 -17 -12 -4 4 13 16 21 21 21 13z m-921 -47 c-17 -17 -23
-32 -21 -51 1 -3 -6 -9 -14 -12 -13 -5 -14 0 -9 27 15 66 23 79 43 66 19 -12
19 -12 1 -30z m831 17 c0 -2 -8 -10 -17 -17 -16 -13 -17 -12 -4 4 13 16 21 21
21 13z m-123 -52 c-3 -3 -12 -4 -19 -1 -8 3 -5 6 6 6 11 1 17 -2 13 -5z m7883
-12 c0 -5 -13 -7 -30 -4 -16 2 -30 6 -30 8 0 2 14 4 30 4 17 0 30 -4 30 -8z
m63 1 c-7 -2 -21 -2 -30 0 -10 3 -4 5 12 5 17 0 24 -2 18 -5z m97 -3 c0 -5 -5
-10 -11 -10 -5 0 -7 5 -4 10 3 6 8 10 11 10 2 0 4 -4 4 -10z m17 -26 c-3 -3
-12 -4 -19 -1 -8 3 -5 6 6 6 11 1 17 -2 13 -5z m-8225 -26 c-9 -9 -15 -9 -24
0 -9 9 -7 12 12 12 19 0 21 -3 12 -12z m8161 -8 c4 0 5 5 1 11 -11 19 29 -7
51 -32 11 -12 14 -19 8 -15 -8 4 -13 1 -13 -8 0 -8 -9 -20 -20 -26 -13 -7 -20
-7 -20 -1 0 6 -14 26 -30 45 -21 23 -26 36 -18 39 7 2 17 1 23 -4 5 -5 13 -9
18 -9z m-7736 -96 c27 -23 65 -51 84 -63 44 -27 31 -27 -34 1 -67 28 -84 43
-113 100 -28 56 -32 75 -5 33 10 -16 40 -49 68 -71z m7513 86 c0 -13 -11 -13
-30 0 -12 8 -11 10 8 10 12 0 22 -4 22 -10z m-8105 -40 l40 -17 -48 -7 c-38
-6 -53 -4 -66 8 -9 8 -32 22 -51 31 l-35 15 60 -6 c33 -4 78 -15 100 -24z
m355 21 c0 -12 -57 -25 -90 -22 -52 6 -43 16 20 22 36 3 66 6 68 7 1 1 2 -2 2
-7z m110 5 c0 -11 -19 -15 -25 -6 -3 5 1 10 9 10 9 0 16 -2 16 -4z m44 -39 c4
-19 3 -26 -4 -22 -5 3 -10 18 -10 32 0 32 5 28 14 -10z m7626 29 c0 -2 -7 -7
-16 -10 -8 -3 -12 -2 -9 4 6 10 25 14 25 6z m781 -23 c-8 -15 -10 -15 -11 -2
0 17 10 32 18 25 2 -3 -1 -13 -7 -23z m-10424 -23 c9 -24 13 -50 8 -50 -3 0
-10 12 -15 26 -6 14 -14 22 -20 19 -14 -9 -12 13 3 29 8 10 13 11 15 3 2 -7 6
-19 9 -27z m9763 36 c0 -11 -19 -15 -25 -6 -3 5 1 10 9 10 9 0 16 -2 16 -4z
m7 -32 c-3 -3 -12 -4 -19 -1 -8 3 -5 6 6 6 11 1 17 -2 13 -5z m-9801 -40 c-3
-9 -6 -19 -6 -23 0 -4 -9 -7 -19 -7 -11 0 -17 5 -13 11 21 34 49 48 38 19z
m1605 -15 l21 -21 -43 8 c-24 4 -75 7 -114 7 l-70 -1 70 13 c100 18 112 18
136 -6z m242 8 c-3 -5 -13 -7 -23 -4 -14 4 -20 -3 -24 -28 -5 -24 -13 -34 -31
-37 l-24 -5 24 29 c14 16 25 35 25 42 0 8 12 13 29 12 16 -1 27 -5 24 -9z
m7807 -1 c0 -3 -4 -8 -10 -11 -5 -3 -10 -1 -10 4 0 6 5 11 10 11 6 0 10 -2 10
-4z m-7918 -18 c-9 -9 -15 -9 -24 0 -9 9 -7 12 12 12 19 0 21 -3 12 -12z m188
-8 c0 -11 -7 -20 -15 -20 -8 0 -15 5 -15 11 0 5 5 7 12 3 8 -5 9 -2 5 9 -3 10
-2 17 3 17 6 0 10 -9 10 -20z m-81 -8 c6 -12 5 -23 -4 -36 -12 -16 -14 -15
-12 18 2 41 3 42 16 18z m7771 -1 c0 -4 -21 -17 -47 -30 -27 -12 -60 -28 -75
-36 -41 -21 -34 -11 22 32 44 34 100 53 100 34z m-9979 -90 l-24 -19 49 4 c63
6 116 -4 111 -19 -2 -7 -19 -11 -38 -10 -22 1 -29 -1 -20 -7 8 -4 21 -6 29 -2
9 3 13 1 9 -5 -8 -13 112 -24 216 -20 38 1 71 -1 73 -5 3 -5 12 -1 20 7 9 8
34 15 57 16 37 0 39 1 18 10 -46 18 -15 17 124 -7 77 -13 230 -29 340 -35 186
-10 262 -19 169 -19 -172 0 -549 -135 -711 -254 -39 -29 -59 -54 -50 -63 11
-10 322 -70 482 -92 213 -30 1038 -60 1725 -63 357 -1 461 -4 340 -8 -96 -4
-188 -11 -205 -17 l-30 -11 35 -2 c29 -1 32 -3 15 -10 -11 -5 -32 -9 -47 -9
-16 -1 -28 -5 -28 -10 0 -5 -9 -7 -21 -4 -11 3 -18 11 -16 18 4 8 -11 12 -46
12 -29 0 -44 -2 -34 -4 9 -3 17 -9 17 -14 0 -8 -83 -13 -177 -9 -23 1 -51 -3
-62 -9 -14 -8 -21 -8 -24 2 -3 6 -6 3 -6 -8 -1 -13 -4 -16 -9 -8 -11 17 -128
22 -124 6 1 -7 -5 -13 -14 -13 -8 0 -12 5 -9 10 3 6 -3 10 -14 10 -12 0 -21
-4 -21 -9 0 -5 -3 -16 -6 -24 -4 -11 5 -14 46 -14 28 0 57 -6 63 -12 7 -7 8
-12 2 -11 -21 5 -36 0 -30 -10 9 -15 -8 -12 -31 5 -25 19 -55 20 -48 1 3 -7
-2 -16 -11 -20 -10 -4 -14 -2 -9 6 5 7 3 8 -6 3 -7 -4 -63 -9 -124 -11 -61 -1
-134 -4 -162 -6 -35 -3 -51 0 -51 8 0 7 11 14 23 17 14 2 21 0 17 -6 -4 -7 1
-8 12 -3 11 4 22 2 27 -6 6 -10 8 -10 8 -1 0 7 7 10 17 6 9 -4 14 -2 11 3 -4
5 37 8 100 6 66 -1 102 1 93 7 -7 4 -22 6 -32 4 -15 -4 -18 -2 -13 12 5 13 9
14 15 3 7 -10 9 -11 9 0 0 7 4 11 9 7 5 -3 13 0 16 6 4 5 13 8 21 5 8 -3 14 1
14 10 0 8 -4 12 -10 9 -17 -11 -49 -14 -55 -6 -4 7 -29 8 -60 1 -5 -1 -17 -2
-25 -1 -13 1 -13 2 0 11 11 7 5 10 -22 10 -24 0 -38 -5 -38 -12 0 -9 -2 -10
-8 -2 -9 15 -170 18 -187 4 -12 -10 -50 -16 -137 -22 -45 -3 -52 -17 -8 -16
17 1 33 -2 37 -5 3 -4 -12 -7 -35 -7 -24 0 -42 -5 -42 -11 0 -6 -9 -9 -20 -6
-11 3 -18 2 -15 -3 2 -4 -29 -7 -70 -7 -41 0 -72 3 -70 7 6 10 -58 11 -90 0
-28 -8 -27 -9 12 -6 23 2 40 -1 37 -6 -3 -4 2 -8 10 -8 9 0 16 -4 16 -9 0 -5
-32 -9 -70 -10 -39 0 -79 -5 -90 -11 -10 -6 -23 -9 -27 -8 -4 2 -9 -1 -10 -6
-2 -5 31 -8 72 -7 50 2 75 -1 75 -9 0 -6 -5 -8 -12 -4 -6 4 -8 3 -4 -4 3 -6
-3 -12 -16 -15 -13 -2 6 -3 42 -1 36 2 67 4 70 5 14 4 39 3 78 -2 38 -5 45 -3
53 15 10 21 10 21 5 -1 -3 -19 0 -21 28 -18 97 12 116 13 109 3 -3 -6 -1 -8 5
-4 12 7 932 9 940 1 3 -3 -69 -5 -159 -5 -390 0 -704 -14 -694 -30 3 -5 -7 -5
-22 0 -17 6 -40 6 -58 1 l-30 -9 29 -1 c16 -1 27 -4 24 -7 -3 -3 -124 -5 -269
-5 -182 0 -266 -4 -271 -12 -4 -7 -10 -8 -20 0 -7 6 -34 10 -59 9 -41 -1 -45
1 -43 21 1 12 5 27 10 34 4 8 3 9 -4 5 -7 -4 -12 -1 -12 8 0 21 -19 31 -33 17
-9 -9 -8 -11 6 -6 10 5 17 2 17 -5 0 -8 -9 -10 -26 -6 -17 5 -23 3 -19 -4 9
-15 -4 -12 -21 5 -14 13 -14 15 0 16 36 3 41 6 38 18 -2 8 3 11 12 8 9 -4 18
-2 21 3 4 6 3 10 -2 11 -4 0 -28 2 -53 5 -33 4 -41 2 -30 -5 9 -7 10 -11 3
-11 -6 0 -15 5 -18 10 -3 6 -13 10 -21 10 -10 0 -12 -5 -8 -12 5 -8 0 -7 -11
2 -11 9 -16 10 -11 3 4 -8 1 -13 -9 -13 -9 0 -14 4 -11 9 7 10 -465 8 -482 -3
-7 -4 -16 -5 -20 -2 -5 3 -35 6 -68 7 -32 1 -64 6 -70 10 -13 10 -90 6 -118
-6 -13 -6 -17 -5 -13 2 5 7 0 9 -13 6 -11 -3 -41 -2 -67 2 l-48 7 30 13 c29
12 29 12 -37 20 -36 4 -95 4 -130 0 -45 -4 -59 -3 -48 4 12 9 10 11 -10 11
-20 0 -22 2 -10 10 11 7 8 10 -15 10 -17 0 -36 -5 -43 -12 -9 -9 -12 -9 -12 0
0 7 -5 12 -11 12 -5 0 -7 -4 -4 -10 3 -5 -1 -10 -9 -10 -27 0 -6 -27 25 -34
48 -9 30 -32 -22 -28 -24 2 -45 6 -47 10 -1 4 -23 6 -50 4 -37 -2 -43 -1 -29
8 9 6 26 9 36 5 10 -3 26 -2 35 1 34 13 -5 21 -77 17 -51 -3 -68 -1 -57 6 24
17 5 22 -24 7 -19 -9 -23 -16 -14 -20 7 -3 3 -3 -9 0 -12 3 -33 -2 -47 -11
-14 -10 -27 -12 -30 -6 -3 5 0 12 6 14 7 3 3 6 -10 6 -13 1 -20 -3 -17 -9 3
-5 5 -10 2 -10 -9 0 -86 41 -91 49 -7 11 87 18 284 20 95 1 169 6 175 12 7 7
-48 10 -166 8 -98 -1 -183 2 -190 6 -8 5 -10 4 -5 -4 6 -9 -10 -11 -66 -6 -40
3 -120 8 -178 11 -58 3 -127 7 -155 9 -27 2 -69 4 -92 6 -23 1 -40 6 -36 11 3
5 -3 9 -13 8 -35 -4 -42 0 -49 28 -4 15 -9 22 -12 16 -2 -7 -48 -10 -138 -8
-106 2 -139 6 -151 18 -8 9 -21 16 -27 16 -7 1 -1 7 13 15 l25 14 -30 1 c-20
0 -26 3 -17 9 11 7 10 9 -3 15 -9 3 -13 10 -10 16 9 14 85 13 85 -2 0 -6 8 -2
18 10 10 11 25 20 32 20 49 -3 91 4 103 17 12 11 17 12 20 2 4 -9 8 -9 14 -1
4 7 19 14 33 17 18 3 15 5 -15 7 l-40 2 40 9 c58 11 104 18 155 23 24 3 46 10
48 16 3 8 9 7 19 -2 14 -11 15 -10 9 10 -5 13 -3 22 3 22 6 0 11 -4 11 -10 0
-5 5 -10 11 -10 8 0 8 5 -1 15 -18 21 -4 65 20 65 23 0 28 -35 8 -44 -7 -3 16
-4 50 -1 35 2 66 6 69 9 11 10 -27 18 -57 12 -23 -4 -30 -2 -30 10 0 13 7 15
34 10 19 -4 37 -2 40 3 4 5 28 13 54 16 85 11 102 16 102 31 0 8 3 14 8 14 4
1 52 1 107 2 55 0 145 7 200 15 97 14 152 20 187 22 9 1 18 11 20 23 4 31 89
54 193 52 52 0 84 4 92 12 23 23 14 34 -27 34 -23 0 -40 5 -40 11 0 6 6 9 14
6 15 -6 40 16 30 26 -13 12 9 27 39 27 l32 0 -24 -19z m10683 -27 c3 -8 2 -12
-4 -9 -6 3 -10 10 -10 16 0 14 7 11 14 -7z m-10224 2 c0 -2 -11 -6 -25 -8 -13
-3 -22 -1 -19 3 5 9 44 13 44 5z m-687 -23 c-7 -2 -19 -2 -25 0 -7 3 -2 5 12
5 14 0 19 -2 13 -5z m172 -23 c3 -6 -1 -7 -9 -4 -18 7 -21 14 -7 14 6 0 13 -4
16 -10z m1265 -20 c0 -5 -4 -10 -10 -10 -5 0 -10 5 -10 10 0 6 5 10 10 10 6 0
10 -4 10 -10z m9379 -44 c-14 -12 -90 -46 -84 -37 3 7 -3 11 -17 12 -13 0 2 7
32 14 65 15 75 16 69 11z m-8879 -61 c-7 -9 -15 -13 -19 -10 -3 3 1 10 9 15
21 14 24 12 10 -5z m-2556 -14 c5 -1 3 -7 -3 -14 -7 -9 -55 -18 -128 -26 -65
-6 -131 -14 -148 -16 -16 -3 -24 -2 -17 1 19 9 14 22 -10 27 -15 3 -8 5 17 7
39 2 39 3 10 10 l-30 8 29 1 c16 0 34 -6 40 -13 8 -11 20 -13 46 -7 19 5 28
10 20 12 -8 1 10 5 40 8 47 5 77 5 134 2z m-527 -12 c-10 -6 -24 -8 -32 -5 -8
3 -15 0 -18 -7 -4 -14 -80 -13 -85 2 -2 6 -8 11 -13 11 -6 0 -7 -4 -4 -10 3
-6 -1 -7 -10 -4 -8 4 -28 2 -43 -4 -15 -6 -36 -13 -47 -17 -20 -7 -20 -7 -1
-14 13 -5 1 -8 -32 -9 -31 0 -50 3 -47 9 4 5 14 9 23 9 9 1 28 7 42 15 24 14
23 15 -20 10 l-45 -5 35 14 c44 17 326 22 297 5z m11328 1 c16 -7 12 -9 -18
-9 -23 -1 -36 3 -32 9 7 12 23 12 50 0z m-8051 -90 c5 0 7 -3 4 -6 -8 -7 -128
54 -128 65 0 5 26 -6 57 -25 31 -19 61 -34 67 -34z m683 48 c-3 -8 -6 -5 -6 6
-1 11 2 17 5 13 3 -3 4 -12 1 -19z m-4092 2 c-3 -5 -12 -10 -18 -10 -7 0 -6 4
3 10 19 12 23 12 15 0z m-225 -10 c0 -5 -10 -10 -22 -10 -19 0 -20 2 -8 10 19
13 30 13 30 0z m-92 -7 c-10 -2 -28 -2 -40 0 -13 2 -5 4 17 4 22 1 32 -1 23
-4z m144 -21 c6 -6 -51 -7 -119 -3 -21 2 -24 4 -11 9 20 8 120 3 130 -6z m345
-8 c-3 -3 -12 -4 -19 -1 -8 3 -5 6 6 6 11 1 17 -2 13 -5z m-562 -13 c8 12 85
9 85 -4 0 -5 -15 -8 -32 -6 -41 2 -75 -10 -57 -21 6 -4 -15 -8 -47 -7 -32 0
-47 2 -31 4 24 4 32 13 28 35 0 4 10 3 24 -2 16 -6 26 -6 30 1z m4375 4 c0
-11 -143 -44 -215 -49 -101 -7 -70 7 73 34 101 19 142 23 142 15z m-4389 -70
c-39 -18 -41 -18 -41 -6 0 10 23 18 55 19 13 1 8 -4 -14 -13z m-101 -5 c-8 -5
-22 -9 -30 -9 -10 0 -8 3 5 9 27 12 43 12 25 0z m543 -27 c-7 -2 -19 -2 -25 0
-7 3 -2 5 12 5 14 0 19 -2 13 -5z m5043 -162 c-3 -5 -15 -11 -26 -14 -17 -4
-19 -3 -9 9 12 15 44 20 35 5z m-539 -27 c-3 -3 -12 -4 -19 -1 -8 3 -5 6 6 6
11 1 17 -2 13 -5z m503 -14 c0 -5 -12 -10 -27 -9 l-28 1 25 8 c14 4 26 8 28 9
1 1 2 -3 2 -9z m60 6 c0 -3 -4 -8 -10 -11 -5 -3 -10 -1 -10 4 0 6 5 11 10 11
6 0 10 -2 10 -4z m30 -6 c0 -5 -4 -10 -10 -10 -5 0 -10 5 -10 10 0 6 5 10 10
10 6 0 10 -4 10 -10z m97 -4 c14 4 15 4 3 -4 -8 -5 -30 -7 -49 -5 -22 4 -29 8
-20 14 7 4 21 3 30 -2 10 -5 26 -6 36 -3z m-487 0 c0 -2 -7 -7 -16 -10 -8 -3
-12 -2 -9 4 6 10 25 14 25 6z m77 -2 c-3 -3 -12 -4 -19 -1 -8 3 -5 6 6 6 11 1
17 -2 13 -5z m90 0 c-3 -3 -12 -4 -19 -1 -8 3 -5 6 6 6 11 1 17 -2 13 -5z
m358 -14 c3 -6 -4 -10 -17 -10 -18 0 -20 2 -8 10 19 12 18 12 25 0z m70 0 c-3
-5 -16 -10 -28 -10 -18 0 -19 2 -7 10 20 13 43 13 35 0z m-145 -11 c0 -5 4 -8
8 -5 5 3 9 0 9 -7 0 -8 -13 -11 -38 -9 -20 2 -47 -2 -60 -8 -13 -7 -24 -9 -26
-4 -2 5 -29 8 -60 7 l-58 -2 55 10 c30 5 75 11 99 13 23 3 46 7 49 10 9 10 22
7 22 -5z m-310 -39 c-19 -12 -47 -13 -54 -2 -3 5 11 9 32 10 27 1 33 -1 22 -8z
m-4703 -6 c-3 -3 -12 -4 -19 -1 -8 3 -5 6 6 6 11 1 17 -2 13 -5z m3037 -52 c3
-5 -1 -9 -9 -9 -8 0 -12 4 -9 9 3 4 7 8 9 8 2 0 6 -4 9 -8z m-1897 -8 c-2 -2
-26 -6 -53 -9 -33 -4 -44 -3 -34 4 13 9 96 13 87 5z m2326 -1 c-7 -2 -19 -2
-25 0 -7 3 -2 5 12 5 14 0 19 -2 13 -5z m-696 -9 c-9 -10 -69 -13 -90 -5 -12
5 2 8 38 9 32 1 55 -1 52 -4z m-1950 -10 c-3 -3 -12 -4 -19 -1 -8 3 -5 6 6 6
11 1 17 -2 13 -5z m590 0 c-3 -3 -12 -4 -19 -1 -8 3 -5 6 6 6 11 1 17 -2 13
-5z m248 -14 c-3 -5 2 -10 11 -10 10 0 15 -3 11 -6 -3 -3 -72 -8 -153 -10 -81
-2 -144 -1 -140 3 4 5 24 8 44 9 21 0 67 2 103 4 36 2 70 0 76 -3 5 -4 19 0
29 8 23 17 27 18 19 5z m445 0 c0 -5 -15 -10 -32 -9 -31 1 -32 1 -8 9 35 11
40 11 40 0z m2523 3 c-7 -2 -19 -2 -25 0 -7 3 -2 5 12 5 14 0 19 -2 13 -5z
m-3663 -22 c0 -5 8 -12 18 -14 11 -3 7 -5 -10 -6 -14 0 -29 5 -32 12 -4 9 -8
9 -11 1 -4 -7 -16 -9 -28 -6 -22 6 -22 6 3 13 37 10 60 10 60 0z m57 3 c-3 -3
-12 -4 -19 -1 -8 3 -5 6 6 6 11 1 17 -2 13 -5z m43 -4 c0 -5 -4 -10 -10 -10
-5 0 -10 5 -10 10 0 6 5 10 10 10 6 0 10 -4 10 -10z m306 2 c-2 -4 -19 -9 -36
-10 -19 -2 -29 1 -25 8 3 5 20 10 36 10 17 0 28 -4 25 -8z m1329 -9 c-22 -3
-45 -9 -51 -14 -6 -5 -14 -6 -17 -2 -17 17 -2 23 51 21 46 -1 50 -2 17 -5z
m-785 -19 c0 -8 -5 -12 -10 -9 -6 4 -8 11 -5 16 9 14 15 11 15 -7z m257 10
c-3 -3 -12 -4 -19 -1 -8 3 -5 6 6 6 11 1 17 -2 13 -5z m-484 -11 c-7 -2 -19
-2 -25 0 -7 3 -2 5 12 5 14 0 19 -2 13 -5z m191 -12 c3 -4 -6 -6 -19 -3 -14 2
-25 6 -25 8 0 8 39 4 44 -5z m2179 2 c-7 -2 -19 -2 -25 0 -7 3 -2 5 12 5 14 0
19 -2 13 -5z m617 -23 c0 -5 -2 -10 -4 -10 -3 0 -8 5 -11 10 -3 6 -1 10 4 10
6 0 11 -4 11 -10z m-703 -6 c-3 -3 -12 -4 -19 -1 -8 3 -5 6 6 6 11 1 17 -2 13
-5z m-582 -14 c-3 -5 -12 -10 -18 -10 -7 0 -6 4 3 10 19 12 23 12 15 0z m-158
-6 c-3 -3 -12 -4 -19 -1 -8 3 -5 6 6 6 11 1 17 -2 13 -5z m1083 -9 c-33 -19
-49 -19 -24 0 10 8 26 14 34 14 9 0 4 -6 -10 -14z m-1292 -2 c-10 -2 -26 -2
-35 0 -10 3 -2 5 17 5 19 0 27 -2 18 -5z m1152 -16 c0 -4 -17 -5 -37 -1 -53 9
-55 15 -5 12 23 -2 42 -7 42 -11z m-206 -8 c-6 -11 -31 -12 -37 -1 -3 4 6 8
19 8 13 1 21 -2 18 -7z"/>
<path d="M13420 4055 c0 -2 10 -10 23 -16 20 -11 21 -11 8 4 -13 16 -31 23
-31 12z"/>
<path d="M3010 3671 c0 -6 5 -13 10 -16 6 -3 10 1 10 9 0 9 -4 16 -10 16 -5 0
-10 -4 -10 -9z"/>
<path d="M2958 3647 c16 -7 26 -7 34 1 8 8 2 10 -23 10 -31 -1 -32 -2 -11 -11z"/>
<path d="M2428 3583 c7 -3 16 -2 19 1 4 3 -2 6 -13 5 -11 0 -14 -3 -6 -6z"/>
<path d="M2248 3503 c7 -3 16 -2 19 1 4 3 -2 6 -13 5 -11 0 -14 -3 -6 -6z"/>
<path d="M1667 3310 c4 -16 8 -18 20 -9 11 10 11 14 1 20 -21 14 -26 10 -21
-11z"/>
<path d="M1630 3312 c0 -4 -17 -7 -37 -6 -21 2 -28 0 -15 -2 12 -3 20 -9 17
-14 -7 -12 28 -7 43 7 15 14 16 23 2 23 -5 0 -10 -4 -10 -8z"/>
<path d="M1880 3230 c0 -5 5 -10 10 -10 6 0 10 5 10 10 0 6 -4 10 -10 10 -5 0
-10 -4 -10 -10z"/>
<path d="M2830 3141 c0 -8 79 -3 89 5 2 2 -17 4 -42 4 -26 0 -47 -4 -47 -9z"/>
<path d="M2930 3135 c-45 -16 -24 -26 45 -21 28 2 56 5 63 5 7 1 11 5 8 10 -4
5 0 12 6 14 30 12 -90 4 -122 -8z"/>
<path d="M4604 3139 c-4 -8 3 -9 26 -4 18 4 30 3 27 -1 -3 -5 6 -9 19 -9 30 0
31 11 2 19 -35 9 -66 7 -74 -5z"/>
<path d="M5238 3088 c9 -9 15 -9 24 0 9 9 7 12 -12 12 -19 0 -21 -3 -12 -12z"/>
<path d="M3385 3081 l-60 -6 80 -6 c83 -6 113 -1 79 12 -10 4 -23 7 -29 7 -5
-1 -37 -4 -70 -7z"/>
<path d="M3398 3043 c7 -3 16 -2 19 1 4 3 -2 6 -13 5 -11 0 -14 -3 -6 -6z"/>
<path d="M3450 3046 c0 -2 7 -6 15 -10 8 -3 15 -1 15 4 0 6 -7 10 -15 10 -8 0
-15 -2 -15 -4z"/>
<path d="M4198 3003 c6 -2 18 -2 25 0 6 3 1 5 -13 5 -14 0 -19 -2 -12 -5z"/>
<path d="M319 6960 c-32 -26 -10 -43 35 -27 l31 11 -25 7 c-14 4 -19 7 -12 8
14 1 17 21 3 21 -5 0 -19 -9 -32 -20z"/>
<path d="M385 6970 c-3 -5 -2 -10 4 -10 5 0 13 5 16 10 3 6 2 10 -4 10 -5 0
-13 -4 -16 -10z"/>
<path d="M608 6723 c7 -3 16 -2 19 1 4 3 -2 6 -13 5 -11 0 -14 -3 -6 -6z"/>
<path d="M530 6570 c0 -5 7 -10 15 -10 8 0 15 5 15 10 0 6 -7 10 -15 10 -8 0
-15 -4 -15 -10z"/>
<path d="M4298 5213 c7 -3 16 -2 19 1 4 3 -2 6 -13 5 -11 0 -14 -3 -6 -6z"/>
<path d="M3572 4953 c-23 -11 -30 -19 -23 -26 10 -10 76 17 87 36 9 13 -30 7
-64 -10z"/>
<path d="M2833 4933 c9 -2 23 -2 30 0 6 3 -1 5 -18 5 -16 0 -22 -2 -12 -5z"/>
<path d="M2880 4930 c0 -5 6 -10 14 -10 8 0 18 5 21 10 3 6 -3 10 -14 10 -12
0 -21 -4 -21 -10z"/>
<path d="M3905 4850 c-3 -5 -1 -10 4 -10 6 0 11 5 11 10 0 6 -2 10 -4 10 -3 0
-8 -4 -11 -10z"/>
<path d="M1912 4694 c-11 -12 -9 -14 7 -14 23 0 36 16 18 23 -6 2 -18 -2 -25
-9z"/>
<path d="M4023 4683 c-51 -4 -53 -5 -53 -34 0 -30 17 -38 37 -18 5 5 24 11 41
11 19 1 40 10 53 25 l22 23 -24 -2 c-13 -1 -48 -3 -76 -5z"/>
<path d="M3820 4665 c0 -7 30 -13 34 -7 3 4 -4 9 -15 9 -10 1 -19 0 -19 -2z"/>
<path d="M3670 4643 c0 -1 7 -9 16 -17 22 -23 184 -23 184 -1 0 8 -10 16 -22
17 -33 2 -178 3 -178 1z"/>
<path d="M2040 4631 c0 -5 5 -13 10 -16 6 -3 10 -2 10 4 0 5 -4 13 -10 16 -5
3 -10 2 -10 -4z"/>
<path d="M1485 4610 c-3 -5 3 -10 14 -10 12 0 21 5 21 10 0 6 -6 10 -14 10 -8
0 -18 -4 -21 -10z"/>
<path d="M3462 4604 c10 -10 20 -16 22 -13 3 3 -5 11 -17 18 -21 13 -21 12 -5
-5z"/>
<path d="M3416 4585 c-15 -11 -16 -16 -5 -20 12 -4 22 -3 58 4 6 1 -21 31 -28
31 -3 0 -15 -7 -25 -15z"/>
<path d="M1590 4559 c0 -14 62 -21 73 -9 9 10 6 11 -16 6 -18 -4 -26 -3 -23 3
4 5 -3 9 -14 8 -11 -1 -20 -4 -20 -8z"/>
</g>
</svg>
